/* XPM */
static char *result[] = {
/* columns rows colors chars-per-pixel */
"50 50 80 1 ",
"  c black",
". c #023C12",
"X c #272727",
"o c #3F3F3F",
"O c #563E2B",
"+ c #034616",
"@ c #034A18",
"# c #04561D",
"$ c #056021",
"% c #077028",
"& c #087329",
"* c #5D432F",
"= c #484848",
"- c gray35",
"; c #7C5A41",
": c gray43",
"> c #747474",
", c #8C664A",
"< c #916A4D",
"1 c #9F7555",
"2 c #AC7F5D",
"3 c #0A812F",
"4 c #0B8832",
"5 c #0B8A33",
"6 c #0C8F35",
"7 c #0D9538",
"8 c #0E9A3A",
"9 c #0E9F3C",
"0 c #00A735",
"q c #00A736",
"w c #00A737",
"e c #00A73A",
"r c #0FA03D",
"t c #0FA33E",
"y c #0FA43E",
"u c #00A83D",
"i c #10A840",
"p c #10A940",
"a c #10AA41",
"s c #10AB41",
"d c #11AB41",
"f c #11AC42",
"g c #11AD42",
"h c #11AE42",
"j c #11AE43",
"k c #83AC58",
"l c #9BAE61",
"z c #B5B06B",
"x c #C3906A",
"c c #CA956E",
"v c #C0B16F",
"b c #DCA378",
"n c #DFA57A",
"m c #C4B271",
"M c #DFB57D",
"N c #E4A97C",
"B c #E6AB7E",
"V c #E4B57F",
"C c gray52",
"Z c #E6B680",
"A c #F1B284",
"S c #F2B485",
"D c #F8B888",
"F c #F9B889",
"G c #F9B989",
"H c #FAB889",
"J c #FAB989",
"K c #FABA89",
"L c #FBBA89",
"P c #FEB98B",
"I c #FFB98B",
"U c #FDBC8B",
"Y c #FEBC8B",
"T c #FFB98C",
"R c #FEBD8C",
"E c #FFBE8D",
"W c #FFBF8D",
"Q c #C5C5C5",
"! c white",
"~ c None",
/* pixels */
"~~~~~~~~~~~~~~~~               ~~~~~~~~~~~~~~~~~~~",
"~~~~~~~~~~~~~~~~               ~~~~~~~~~~~~~~~~~~~",
"~~~~~~~~~~~~~~~~               ~~~~~~~~~~~~~~~~~~~",
"~~~~~~~~~~~~~oooyyySSSSSSyyyyyyooo~~~~~~~~~~~~~~~~",
"~~~~~~~~~~~~~   iiiDDDDDDiiiiii   ~~~~~~~~~~~~~~~~",
"~~~~~~~~~~~~~   iiiYYYYYYiiiiii   ~~~~~~~~~~~~~~~~",
"~~~~~~~~~~---   iiiOOOOOOiiiiiirrr------~~~~~~~~~~",
"~~~~~~~~~~      iii      iiiiiiiii      ~~~~~~~~~~",
"~~~~~~~~~~      ggg      qqqqqqiii      ~~~~~~~~~~",
"~~~~~~~~~:BBB   +++BBBBBBZZZZZZiii   BBB:::~~~~~~~",
"~~~~~~~   GGG      GGGGGGFFFFFFiii   GGG   ~~~~~~~",
"~~~~~~~   DDD      WWWWWWWWWWWW000   DDD   ~~~~~~~",
"~~~~~~~   DDD   nnn;;;;;;;;;;;;MMM   DDD   ~~~~~~~",
"~~~~~~~   DDD   KKK            HHH   DDD   ~~~~~~~",
"~~~~~~~   DDD   WWW            WWW   DDD   ~~~~~~~",
"~~~~~~~   DDD   ,,,            ,,,   DDD   ~~~~~~~",
"~~~~~~~   DDD                        DDD   ~~~~~~~",
"~~~~~~~   TTT                        TTT   ~~~~~~~",
"~~~~~~~   lll555                  555lll   ~~~~~~~",
"~~~~~~~   eeeddd                  dddeee   ~~~~~~~",
"~~~~~~~   hhh000                  000hhh   ~~~~~~~",
"~~~~~~~~~~%%%mmmxxx   xxxxxx   xxxmmm%%%~~~~~~~~~~",
"~~~~~~~~~~   PPPYYY   YYYYYY   YYYPPP   ~~~~~~~~~~",
"~~~~~~~~~~   IIIDDD   DDDDDD   DDDIII   ~~~~~~~~~~",
"~~~~~~~~~~   zzzDDD   DDDDDD   DDDzzz   ~~~~~~~~~~",
"~~~~~~~~~~   wwwDDD   DDDDDD   DDDwww   ~~~~~~~~~~",
"~~~~~~~~~~   fffPPP   DDDDDD   PPPfff   !~~~~~~~~~",
"~~~~~~~~~Q&&&333vvv222DDDDDD222vvv333&&&QQ~~~~~~~~",
"~~~~~~~   hhh   qqqEEEDDDDDDEEEqqq   hhh   ~~~~~~~",
"~~~~~~~   iii   dddUUUUUUUUUUUUddd   iii   ~~~~~~~",
"~~~~~~~111iii   444cccccccccccc444   iii   ~~~~~~~",
"~~~~   WWWiii                        iii   ~~~~~~~",
"~~~~   DDDsss                        iii   ~~~~~~~",
"~~~~   DDD666   $$$$$$$$$$$$   <<<<<<iii   ~~~~~~~",
"~~~~   DDD      jjjjjjjjjjjj   WWWWWWiii   ~~~~~~~",
"~~~~   LLL      uuuuuuuuuuuu   DDDDDDaaa   ~~~~~~~",
"~~~~CCCbbb   ###kkkkkkkkkkkk   DDDDDD777CCC~~~~~~~",
"~~~~~~~      jjjTTTTTTTTTTTT   DDDDDD   ~~~~~~~~~~",
"~~~~~~~      pppJJJJJJHHHHHH   JJJJJJ   ~~~~~~~~~~",
"~~~~~~~>>>   888NNNNNNVVVVVV@@@NNNNNN>>>~~~~~~~~~~",
"~~~~~~~~~~            qqqqqqhhh      ~~~~~~~~~~~~~",
"~~~~~~~~~~            ppppppppp      ~~~~~~~~~~~~~",
"~~~~~~~~~~   ...******999999999      ~~~~~~~~~~~~~",
"~~~~~~~      fffRRRRRR                  ~~~~~~~~~~",
"~~~~~~~      iiiDDDDDD                  ~~~~~~~~~~",
"~~~~~~~===   tttAAAAAA               ===~~~~~~~~~~",
"~~~~~~~~~~                           ~~~~~~~~~~~~~",
"~~~~~~~~~~                           ~~~~~~~~~~~~~",
"~~~~~~~~~~XXXXXXXXXXXXXXXXXXXXXXXXXXX~~~~~~~~~~~~~",
"~~~~~~~~~~~~~~~~~~~~~~~~~~~~~~~~~~~~~~~~~~~~~~~~~~"
};
