/* XPM */
static char *result[] = {
/* columns rows colors chars-per-pixel */
"50 50 77 1 ",
"  c black",
". c #012608",
"X c #023810",
"o c #3D2B1D",
"O c #4E3827",
"+ c #563E2B",
"@ c #024114",
"# c #04521B",
"$ c #055D20",
"% c #077028",
"& c #08762B",
"* c #08792C",
"= c #644833",
"- c #515151",
"; c #7C5A41",
": c #747474",
"> c #8C664A",
", c #966E50",
"< c #A87C5A",
"1 c #0B8D34",
"2 c #0C9136",
"3 c #0C9337",
"4 c #0D9638",
"5 c #00A735",
"6 c #00A739",
"7 c #00A73B",
"8 c #00A73C",
"9 c #0FA03D",
"0 c #0FA23D",
"q c #0FA43E",
"w c #00A83F",
"e c #04A83F",
"r c #0FA840",
"t c #10A840",
"y c #10A940",
"u c #10AA41",
"i c #10AB41",
"p c #11AB41",
"a c #11AC42",
"s c #11AD42",
"d c #11AE42",
"f c #11AE43",
"g c #40A946",
"h c #58AA4B",
"j c #8DAD5B",
"k c #B48561",
"l c #BCB16E",
"z c #C3906A",
"x c #CA956E",
"c c #D09A71",
"v c #D79F75",
"b c #D9A176",
"n c #DFA57A",
"m c #C3B271",
"M c #E8AC7F",
"N c #A4A4A4",
"B c #E9B681",
"V c #EFB784",
"C c #F8B888",
"Z c #F9B888",
"A c #F9B988",
"S c #FAB889",
"D c #FAB989",
"F c #FBBA8A",
"G c #FCB98A",
"H c #FEB98B",
"J c #FFB98B",
"K c #FCBB8A",
"L c #FDBC8B",
"P c #FEBC8B",
"I c #FFB98C",
"U c #FFBD8C",
"Y c #FFBE8D",
"T c #FFBF8D",
"R c gray79",
"E c white",
"W c None",
/* pixels */
"WWWWWWWWWWWWWWWWWW-               WWWWWWWWWWWWWWWW",
"WWWWWWWWWWWWWWWWWW-               WWWWWWWWWWWWWWWW",
"WWWWWWWWWWWWWWWWWW-               WWWWWWWWWWWWWWWW",
"WWWWWWWWWWWWWWW   0yttt5lJCCCSB6tt.  WWWWWWWWWWWWW",
"WWWWWWWWWWWWWWW   0yttt5lJCCCSB6tt.  WWWWWWWWWWWWW",
"WWWWWWWWWWWWWWW   0yttt5lJCCCSB6tt.  WWWWWWWWWWWWW",
"WWWWWWWWW     Xitttttttd&     @att.     WWWWWWWWWW",
"WWWWWWWWW     Xitttttttd&     @att.     WWWWWWWWWW",
"WWWWWWWWW     Xitttttttd&     @att.     WWWWWWWWWW",
"WWWWWW  kYKv  Xir8VZCCCCCCCCCDM      nFT<  WWWWWWW",
"WWWWWW  kYKv  Xir8VZCCCCCCCCCDM      nFT<  WWWWWWW",
"WWWWWW  kYKv  Xir8VZCCCCCCCCCDM      nFT<  WWWWWWW",
"WWWWWW  kYKv  +KCFO           =PCAo  nFT<  WWWWWWW",
"WWWWWW  kYKv  +KCFO           =PCAo  nFT<  WWWWWWW",
"WWWWWW  kYKv  +KCFO           =PCAo  nFT<  WWWWWWW",
"WWWWWW  kYKv                         nFT<  WWWWWWW",
"WWWWWW  kYKv                         nFT<  WWWWWWW",
"WWWWWW  kYKv                         nFT<  WWWWWWW",
"WWWWWW  *sttty9                   qttttf%  WWWWWWW",
"WWWWWW  *sttty9                   qttttf%  WWWWWWW",
"WWWWWW  *sttty9                   qttttf%  WWWWWWW",
"WWWWWWWWW  >TCCCCFO  bKCCCLc  =PCCCCY;  RWWWWWWWWW",
"WWWWWWWWW  >TCCCCFO  bKCCCLc  =PCCCCY;  RWWWWWWWWW",
"WWWWWWWWW  >TCCCCFO  bKCCCLc  =PCCCCY;  RWWWWWWWWW",
"WWWWWWWWW  $fwhGCFO  bKCCCLc  =PCZged#  RWWWWWWWWW",
"WWWWWWWWW  $fwhGCFO  bKCCCLc  =PCZged#  RWWWWWWWWW",
"WWWWWWWWW  $fwhGCFO  bKCCCLc  =PCZged#  RWWWWWWWWW",
"WWWWWW  *si2  Xir8VZCCCCCCCCCSB6tt.  4uf%  NWWWWWW",
"WWWWWW  *si2  Xir8VZCCCCCCCCCSB6tt.  4uf%  NEWWWWW",
"WWWWWW  *si2  Xir8VZCCCCCCCCCSB6tt.  4uf%  NEWWWWW",
"WWWWWW  *si2                         4u5mHPx  :WWW",
"WWWWWW  *si2                         4u5mHPx  :EWW",
"WWWWWW  *si2                         4u5mHPx  :WWW",
"WWWWWW  *s7jICCCCFO  3ittttttttttt.     zUPx  :WWW",
"WWWWWW  *s7jICCCCFO  3ittttttttttt.     zUPx  :WWW",
"WWWWWW  *s7jICCCCFO  3ittttttttttt.     zUPx  :WWW",
"WWWWWWWWW  >TCCCCFO  bKCCCCCCCCCCZged#     NWWWWWW",
"WWWWWWWWW  >TCCCCFO  bKCCCCCCCCCCZged#     NWWWWWW",
"WWWWWWWWW  >TCCCCFO  bKCCCCCCCCCCZged#     NWWWWWW",
"WWWWWWWWWWWW      0yttttttp1            WWWWWWWWWW",
"WWWWWWWWWWWW      0yttttttp1            WWWWWWWWWW",
"WWWWWWWWWWWW      0yttttttp1            WWWWWWWWWW",
"WWWWWWWWW                  ,TCCCCZged#     WWWWWWW",
"WWWWWWWWW                  ,TCCCCZged#     WWWWWWW",
"WWWWWWWWW                  ,TCCCCZged#     WWWWWWW",
"WWWWWWWWWWWW                            WWWWWWWWWW",
"WWWWWWWWWWWW                            WWWWWWWWWW",
"WWWWWWWWWWWW                            WWWWWWWWWW",
"WWWWWWWWWWWWWWWWWWWWW               WWWWWWWWWWWWWW",
"WWWWWWWWWWWWWWWWWWWWW               WWWWWWWWWWWWWW"
};
