/* XPM */
static char *result[] = {
/* columns rows colors chars-per-pixel */
"50 50 161 2 ",
"   c #EB0025",
".  c #EB0026",
"X  c #EA0027",
"o  c #EC0024",
"O  c #ED0024",
"+  c #EC0025",
"@  c #ED0224",
"#  c #ED0424",
"$  c #ED0524",
"%  c #ED0724",
"&  c #ED0824",
"*  c #ED0C24",
"=  c #ED0E24",
"-  c #ED0F24",
";  c #ED1024",
":  c #ED1324",
">  c #ED1424",
",  c #ED1724",
"<  c #ED1824",
"1  c #ED1924",
"2  c #ED1A24",
"3  c #ED1B24",
"4  c #ED1C24",
"5  c #ED1D24",
"6  c #ED1E24",
"7  c #ED1F24",
"8  c #ED2024",
"9  c #ED2124",
"0  c #ED2224",
"q  c #ED2324",
"w  c #ED2424",
"e  c #ED2524",
"r  c #ED2624",
"t  c #ED2724",
"y  c #ED2824",
"u  c #ED2924",
"i  c #ED2A24",
"p  c #ED2B24",
"a  c #ED2C24",
"s  c #ED2D24",
"d  c #ED2E24",
"f  c #ED2F24",
"g  c #ED3223",
"h  c #ED3323",
"j  c #ED3423",
"k  c #ED3523",
"l  c #ED3623",
"z  c #ED3723",
"x  c #ED3024",
"c  c #ED3124",
"v  c #EE3923",
"b  c #ED3B23",
"n  c #EE3B23",
"m  c #EE3C23",
"M  c #F1781F",
"N  c #F1791F",
"B  c #F17A1F",
"V  c #F17C1F",
"C  c #F17D1F",
"Z  c #EE4023",
"A  c #EE4123",
"S  c #EE4323",
"D  c #EE4423",
"F  c #EE4623",
"G  c #EE4823",
"H  c #EE4A23",
"J  c #EE4E22",
"K  c #EE5022",
"L  c #EF5822",
"P  c #EF5B22",
"I  c #EF5E21",
"U  c #EF5F21",
"Y  c #EF5C22",
"T  c #EF6021",
"R  c #EF6121",
"E  c #EF6521",
"W  c #F06821",
"Q  c #F07020",
"!  c #F07220",
"~  c #F07620",
"^  c #F17620",
"/  c #F17720",
"(  c #F1801F",
")  c #F1821E",
"_  c #F2831E",
"`  c #F2841E",
"'  c #F2871E",
"]  c #F2881E",
"[  c #F2891E",
"{  c #F28A1E",
"}  c #F28C1D",
"|  c #F28E1D",
" . c #F38F1D",
".. c #F3921D",
"X. c #F3931D",
"o. c #F3951C",
"O. c #F49B1B",
"+. c #F49C1B",
"@. c #F4A11A",
"#. c #F4A01B",
"$. c #F4A21A",
"%. c #F4A31A",
"&. c #F5A41A",
"*. c #F5A819",
"=. c #F5A919",
"-. c #F5AA19",
";. c #F5AC19",
":. c #F7B716",
">. c #F7B717",
",. c #F7B816",
"<. c #F7BA16",
"1. c #F7BC15",
"2. c #F7BD15",
"3. c #FAD40F",
"4. c #FBD60E",
"5. c #FCDD0B",
"6. c #FCDF0A",
"7. c #FBD90D",
"8. c #F8C413",
"9. c #F8C513",
"0. c #F8C613",
"q. c #F8C114",
"w. c #F9CB11",
"e. c #F9C912",
"r. c #F9CD11",
"t. c #FACF10",
"y. c #FAD010",
"u. c #FAD110",
"i. c #FDE507",
"p. c #FDE606",
"a. c #FDE706",
"s. c #FEEF01",
"d. c #FEED02",
"f. c #FEEC03",
"g. c #FEEE02",
"h. c #FEEF02",
"j. c #FDE805",
"k. c #FEE905",
"l. c #FEEA04",
"z. c #FEEB04",
"x. c #FCE009",
"c. c #FCE208",
"v. c #FFF100",
"b. c #FFF001",
"n. c #FFF101",
"m. c #FFF200",
"M. c #FFF300",
"N. c #FFF201",
"B. c #FFF400",
"V. c #FFF500",
"C. c #FFF600",
"Z. c #FFF700",
"A. c #FFF800",
"S. c #FFF900",
"D. c #FFFA00",
"F. c #FFFB00",
"G. c #FFFE00",
"H. c yellow",
"J. c #FFF229",
"K. c #FFF9BB",
"L. c #FFF200",
/* pixels */
"L.L.L.L.L.L.L.L.L.L.L.L.L.L.L.L.L.L.L.L.L.L.L.L.L.L.L.L.L.L.L.L.L.L.L.L.L.L.L.L.L.L.L.L.L.L.L.L.L.L.",
"L.L.L.L.L.L.L.L.L.L.L.L.L.L.L.L.L.L.L.L.L.L.L.L.L.L.L.L.L.L.L.L.L.L.L.L.L.L.L.L.L.L.L.L.L.L.L.L.L.L.",
"L.L.L.L.L.L.L.L.L.L.L.L.L.L.L.L.L.L.L.L.L.L.L.L.L.L.L.L.L.L.L.L.L.L.L.L.L.L.L.L.L.L.L.L.L.L.L.L.L.L.",
"L.L.L.L.L.L.L.L.L.L.L.L.L.L.L.L.L.L.L.L.L.L.L.L.L.L.L.L.L.L.L.L.L.L.L.L.L.L.L.L.L.L.L.L.L.L.L.L.L.L.",
"L.L.L.L.L.L.L.L.L.L.L.L.L.L.L.L.L.L.L.L.L.L.L.L.L.L.L.L.L.L.L.L.L.L.L.L.L.L.L.L.L.L.L.L.L.L.L.L.L.L.",
"L.L.L.L.L.L.L.L.L.L.L.L.L.L.L.L.L.L.L.L.L.L.L.L.L.L.L.L.L.L.L.L.L.L.L.L.L.L.L.L.L.L.L.L.L.L.L.L.L.L.",
"L.L.L.L.L.L.L.L.L.L.L.L.L.L.L.L.L.L.L.L.L.L.L.L.L.L.L.L.L.L.L.L.L.L.L.L.L.L.L.L.L.L.L.L.L.L.L.L.L.L.",
"L.L.L.L.L.L.L.L.L.L.L.L.L.L.L.L.L.L.L.L.L.L.L.L.L.L.L.L.L.L.L.L.L.L.L.L.L.L.L.L.L.L.L.L.L.L.L.L.L.K.",
"v.v.v.v.v.v.v.v.v.v.v.v.L.L.L.L.L.L.L.L.L.L.L.L.L.L.L.L.L.L.L.L.L.L.L.L.L.v.v.v.v.v.v.v.v.v.v.v.v.v.",
"J.J.J.J.J.J.J.J.J.J.J.J.J.J.J.J.J.J.J.J.J.J.J.J.J.J.J.J.J.J.J.J.J.J.J.J.J.J.J.J.J.J.J.J.J.J.J.J.J.J.",
"m.m.m.m.m.m.m.m.m.m.m.m.m.m.m.m.m.m.m.m.m.m.m.m.m.m.m.m.m.m.m.m.m.m.m.m.m.m.m.m.m.m.m.m.m.m.m.m.m.m.",
"N.N.N.N.N.N.N.N.N.N.N.N.N.N.N.N.N.N.N.N.N.N.N.N.N.N.N.N.N.N.N.N.N.N.N.N.N.N.N.N.N.N.N.N.N.N.N.N.N.N.",
"m.v.n.n.n.n.n.n.n.n.n.m.m.m.n.n.n.m.m.m.m.m.m.v.n.n.v.m.m.m.m.n.n.n.m.m.m.m.m.n.n.n.n.n.n.n.n.n.v.m.",
"v.B.A.A.A.A.A.A.A.A.Z.m.m.m.Z.A.A.M.m.m.m.m.v.V.A.A.V.v.m.m.M.A.A.A.M.m.m.m.m.Z.A.A.A.A.A.A.A.A.B.v.",
"A.r.(  .} } } } | ] O.h.B.h.+.] { c.C.n.m.b.A.q._ _ q.Z.b.B.l...[ ..l.B.n.M.s.O.] | } } } }  .( r.A.",
"D.,.X + + + + + + . S g.B.g.D . . 7.C.b.m.b.S.@.. . $.D.h.V.i.o . o i.V.b.M.g.D . + + + + + + X ,.D.",
"D.2.+ v u p p p h O T g.B.g.T & 2 6.D.b.m.b.G.;.+ + -.D.h.V.p.S - S p.V.b.M.h.T O h p p p u v + 2.D.",
"D.1.. f < 4 3 3 r + P g.L.g.Y + * e.k.v.M.d.a.O.+ + *.L.h.L.L.n o b p.V.b.L.L.P + r 3 3 3 < f . 1.D.",
"D.1.. f 1 5 5 5 y + Y L.L.L.Y + h + ` L.L.L.O * g . =.L.h.L.L.n o n p.L.b.L.L.Y + y 4 4 4 2 x . 1.D.",
"D.1.. f 8 d s d k $ L.L.L.L.R o c + L.L.L.L.1 > g + -.L.h.L.L.n o n L.L.b.L.L.R $ k 8 3 3 t m + 2.D.",
"D.1.. h + . . . + . L.L.L.L.L.. z + L.L.L.L.6 2 f X L.L.h.L.L.L.o n L.L.b.L.L.m . + O 7 9 + + X >.D.",
"D.1.+ O ! L.L.L.L.L.L.L.L.L.L.L.+ O L.L.L.L.7 @ A L.L.L.b.L.L.L.o n L.L.L.m.L.L.L.L.I O + #.8.:.5.V.",
"D.1.+ + L.L.L.L.L.L.L.L.L.L.L.L.+ c O . . + 0 O L.L.L.L.L.L.L.n o n L.L.L.L.L.L.L.L.V + + 3.H.L.V.v.",
"D.1.+ + L.L.L.L.L.L.L.L.L.L.L.L.. t q f f p q + L.L.L.L.L.L.L.n o n L.L.L.L.L.L.L.L./ + + w.L.L.v.m.",
"D.1.+ + | L.L.L.L.L.L.L.L.L.L.L.L.L.1 5 4 5 4 d L.L.L.L.L.L.L.n o n L.L.L.L.L.L.L.L.M + + r.L.L.m.m.",
"D.1.. a s H G L.< L.L.L.L.L.L.L.L.L.+ i 1 f   L.L.L.L.L.L.L.L.n o n L.L.L.L.L.L.L.L.M + + L.L.L.m.m.",
"L.1.. x = o O , . L.L.L.L.L.L.L.L.L.+ p < x . L.L.L.L.L.L.L.L.n o n L.L.L.L.L.L.L.L.M + + L.L.L.m.m.",
"L.1.. f 3 0 0 x + L.L.L.L.L.L.L.L.L.+ i < f . L.L.L.L.L.L.L.L.n o n L.L.L.L.L.L.L.L.M + + L.L.L.m.m.",
"L.1.. f < 3 4 p + L.L.L.L.L.L.L.L.N + p < f . L.L.L.L.L.L.L.L.n o n L.L.L.L.L.L.L.L.M + + r.L.L.m.m.",
"L.1.. f 2 8 8 d + 9.L.L.L.L.L.L.L.L.+ i < f . L.L.L.L.L.L.L.L.n o n L.L.L.L.L.L.L.L.M + + r.L.L.m.m.",
"L.1.. x < 2 3 i + L.L.L.L.L.L.L.L.L.+ p < f . L.L.L.L.L.L.L.L.n o n L.L.L.L.L.L.L.L.M + + r.L.L.m.m.",
"L.1.. x : # % 9 . L.L.L.L.L.L.L.L.L.+ p < x . L.L.L.m.L.L.L.L.n o n p.L.n.m.L.L.L.L.M + + r.L.L.m.m.",
"L.1.+ + ' p.6.x.6.z.L.L.L.L.L.L.L.L.; 6 3 7 = L.L.f.B.v.n.L.L.n o n p.V.n.m.L.L.L.B.M + + r.S.b.m.m.",
"L.1.+ + X.F.M.V.V.L.L.L.L.L.L.L.. w q p a y e + h L.M.v.n.V.L.n o n p.V.n.m.L.L.L.B.M + + r.S.b.m.m.",
"D.1.+ + o.G.C.Z.Z.L.L.L.L.L.L.L.+ c O + + + 0 O K L.L.n.v.V.p.n o n p.V.n.m.L.L.L.B.M + + r.S.b.m.m.",
"D.1.+ + C 4.t.u.u.y.L.L.L.L.L.L.+ : J L.L.) 8 O D L.L.B.b.V.p.n o n p.V.n.m.m.m.m.B.M + + r.S.b.m.m.",
"D.1.. g o + + + + . F L.L.L.L.+ l + L.L.L.L.5 1 x X %.D.h.V.p.n o n p.V.n.m.m.m.m.B.M + + r.S.b.m.m.",
"D.1.. f 5 y t y x o U L.L.g.U o c + L.L.L.L.y 4 c + -.D.h.V.p.n o n p.V.n.m.m.m.m.B.M + + r.S.b.m.m.",
"D.1.. f 2 7 6 7 u + Y L.L.g.Y + j . L.L.L.L.+ + k . =.D.h.V.p.n o n p.V.n.m.m.m.m.B.M + + r.S.b.m.m.",
"D.1.. f < 3 3 3 r + L.L.L.L.P + L.L.L.L.L.L.L.L.+ + *.D.h.V.p.n o b p.V.n.m.m.m.m.B.M + + r.S.b.m.m.",
"D.2.+ l w t r t f o L.L.L.L.U O L.L.L.L.L.L.L.L.+ + =.D.h.V.p.Z O Z p.V.n.m.m.m.m.B.B o + r.S.b.m.m.",
"D.<.. O + + + + +   L.L.L.g.J + L.L.C.b.m.L.L.%.. . &.D.h.V.p.1 + 1 p.V.n.m.m.m.v.V.Q   . w.S.b.m.m.",
"L.0.L L.L.L.L.L.L.L.L.L.L.L.L.L.L.L.C.n.m.b.S.>.I I >.A.s.V.j.^ W ~ j.B.v.m.m.m.m.B.o.E R 3.A.b.m.m.",
"m.m.M.L.L.L.L.L.L.L.L.L.L.L.L.L.L.L.m.m.m.m.m.L.M.M.M.m.m.m.m.M.M.M.m.m.m.m.m.m.m.m.M.M.M.m.m.m.m.L.",
"L.m.L.L.L.L.L.m.m.m.L.L.L.L.L.L.L.L.m.m.m.m.m.L.L.m.m.m.m.m.m.m.m.m.m.m.m.m.m.m.m.m.L.L.m.m.m.m.L.L.",
"L.L.L.L.L.m.m.m.m.m.m.L.L.L.L.L.L.m.m.m.m.m.m.m.m.m.m.m.m.m.m.m.m.m.m.m.m.m.m.m.m.m.m.m.m.m.m.m.L.L.",
"m.m.m.m.m.m.m.m.m.m.m.m.m.m.m.m.m.m.m.m.m.m.m.m.m.m.m.m.m.m.m.m.m.m.m.m.m.m.m.m.m.m.m.m.m.m.m.m.m.L.",
"m.m.m.m.m.m.m.m.m.m.m.m.L.L.m.m.m.m.m.m.m.m.m.m.m.m.m.m.m.m.m.m.m.m.m.m.m.m.m.m.m.m.m.m.m.m.m.m.m.m.",
"m.m.m.m.m.m.m.m.m.m.m.m.L.L.L.L.m.m.m.m.m.m.m.m.m.m.m.m.m.m.m.m.m.m.m.m.m.m.m.m.m.m.m.m.m.m.m.m.m.m.",
"m.m.m.L.L.m.m.m.m.m.m.L.L.L.L.L.L.L.L.L.L.L.L.L.L.L.L.m.m.m.m.m.m.m.L.L.m.m.m.m.m.L.L.L.L.L.m.m.m.L."
};
