/* XPM */
static char *result[] = {
/* columns rows colors chars-per-pixel */
"40 40 128 2 ",
"   c #8D6B1B",
".  c #92681D",
"X  c #817415",
"o  c #8B7318",
"O  c #96711B",
"+  c #92761A",
"@  c #957B1A",
"#  c #A57E1E",
"$  c #A85C25",
"%  c #B96B29",
"&  c #C9661B",
"*  c #E6691F",
"=  c #E76921",
"-  c #EC6C21",
";  c #F26822",
":  c #9B8811",
">  c #AE861F",
",  c #A5881C",
"<  c #AF9D1C",
"1  c #B3AA00",
"2  c #B3A716",
"3  c #B3AB16",
"4  c #B6AF16",
"5  c #B0B011",
"6  c #BAB217",
"7  c #BCB818",
"8  c #AA8D22",
"9  c #B69620",
"0  c #BF9621",
"q  c #CA9C1C",
"w  c #E9971C",
"e  c #FB9D1F",
"r  c #C2A600",
"t  c #D1A701",
"y  c #C1AF18",
"u  c #C9A91A",
"i  c #D5A11D",
"p  c #D9B41D",
"a  c #F7BA02",
"s  c #F0B016",
"d  c #C49F22",
"f  c #E28820",
"g  c #CBA220",
"h  c #CBA024",
"j  c #D1AD22",
"k  c #C6BC23",
"l  c #D6B921",
"z  c #D3BA25",
"x  c #D9BB22",
"c  c #EABE23",
"v  c #D0C107",
"b  c #DFC900",
"n  c #DBCD00",
"m  c #D6C40F",
"M  c #CFC817",
"N  c #DDCD12",
"B  c #D8C71D",
"V  c #D2CA1A",
"C  c #D8D11C",
"Z  c #E2D200",
"A  c #E9D900",
"S  c #E1CB1E",
"D  c #E5C91F",
"F  c #FCC21F",
"G  c #FFC51E",
"H  c #EDDC12",
"J  c #E1D61C",
"K  c #EBD11E",
"L  c #E1DA1B",
"P  c #FED017",
"I  c #FCD01D",
"U  c #FFFA00",
"Y  c #EBE21C",
"T  c #F4E81F",
"R  c #F6E81F",
"E  c #F7EC1F",
"W  c #FDF219",
"Q  c #FFFF1E",
"!  c #DAC622",
"~  c #DBC625",
"^  c #D9CD22",
"/  c #E6C327",
"(  c #E3C821",
")  c #E6D020",
"_  c #EEDB20",
"`  c #ECDE20",
"'  c #F4DA21",
"]  c #FBD82D",
"[  c #F0C532",
"{  c #ECE12C",
"}  c #F2E422",
"|  c #F5E420",
" . c #F4E520",
".. c #FEE725",
"X. c #F5EA2A",
"o. c #FEF021",
"O. c #FFF227",
"+. c #FFFF23",
"@. c #FFFF24",
"#. c #FFFA2D",
"$. c #EAE036",
"%. c #F3E730",
"&. c #FDF533",
"*. c #FFFF32",
"=. c #B3A050",
"-. c #CDCB5B",
";. c #DCD554",
":. c #FFE843",
">. c #FAEF4C",
",. c #FFF846",
"<. c #FBF049",
"1. c #FFE853",
"2. c #FEFA52",
"3. c #FFFF56",
"4. c #E3DC62",
"5. c #F9DF60",
"6. c #F6EE60",
"7. c #FAF465",
"8. c #FDF564",
"9. c #FEF869",
"0. c #FFF96B",
"q. c #FFFF6A",
"w. c #FFFF6E",
"e. c #FFFA70",
"r. c #FFFB71",
"t. c #FFFF70",
"y. c #FFFF74",
"u. c None",
/* pixels */
"u.u.u.u.u.u.u.u.u.u.u.u.u.u.u.u.u.u.u.u.u.u.u.u.u.u.u.u.u.u.u.u.u.u.u.u.u.u.u.u.",
"u.u.u.u.u.u.u.u.u.u.u.u.u.u.u.u.u.u.u.u.u.u.u.u.u.u.u.u.u.u.u.u.u.u.u.u.u.u.u.u.",
"u.u.u.u.u.u.u.u.u.u.u.u.u.u.u.u.u.u.u.u.u.u.u.u.u.u.u.u.u.u.u.u.u.u.u.u.u.u.u.u.",
"u.u.u.u.u.u.u.u.u.u.u.u.u.u.u.u.u.u.u.u.u.u.u.u.u.u.u.u.u.u.u.u.u.u.u.u.u.u.u.u.",
"u.u.u.u.u.u.u.u.u.u.u.u.u.u.u.u.u.u.u.u.u.u.u.u.u.u.u.u.u.u.u.u.u.u.u.u.u.u.u.u.",
"u.u.u.u.u.u.u.u.u.u.u.u.u.u.u.u.u.u.u.u.u.u.u.u.u.u.u.u.u.u.u.u.u.u.u.u.u.u.u.u.",
"u.u.u.u.u.u.u.u.u.u.u.u.u.u.u.u.u.u.u.u.u.u.u.u.u.u.u.u.u.u.u.u.u.u.u.u.u.u.u.u.",
"u.u.u.u.u.u.u.u.u.u.u.u.u.u.u.u.u.u.u.u.u.u.u.u.u.u.u.u.u.u.u.u.u.u.u.u.u.u.u.u.",
"u.u.u.u.u.u.u.u.u.u.u.u.u.u.u.u.u.u.u.u.u.u.u.u.u.u.u.u.u.u.u.u.u.u.u.u.u.u.u.u.",
"u.u.u.u.u.u.u.u.u.u.u.u.u.u.u.u.u.u.u.u.u.u.u.u.u.u.u.u.u.u.u.u.u.u.u.u.u.u.u.u.",
"u.u.u.u.u.u.u.u.u.u.u.u.u.u.u.u.u.u.u.u.u.u.u.u.u.u.u.u.u.u.u.u.u.u.u.u.u.u.u.u.",
"u.u.u.u.u.u.u.u.u.u.u.u.u.u.u.u.u.u.u.u.u.u.u.u.u.u.u.u.u.u.u.u.u.u.u.u.u.u.u.u.",
"u.u.u.u.u.u.u.u.u.u.u.u.u.u.u.u.u.u.u.u.u.u.k n Z A $.u.u.u.u.u.u.u.u.u.u.u.u.u.",
"u.u.u.u.u.u.u.u.u.u.u.u.u.u.u.u.u.u.u.u.1 b U *.3.w.y.t.{ u.u.u.u.u.u.u.u.u.u.u.",
"u.u.u.u.u.u.u.u.u.u.u.u.u.u.u.u.u.u.u.5 ] 1.q.e.7.-.=.r >.,.u.u.u.u.u.u.u.u.u.u.",
"u.u.u.u.u.u.u.u.u.u.u.u.u.u.u.u.u.u.u.m 5.9.<.O.%.u.u.u.;.:.v u.u.u.u.u.u.u.u.u.",
"u.u.u.u.u.u.u.u.u.u.u.u.u.u.u.u.u.u.u.S [ #.<.8.r.6.H X.W s B u.u.u.u.u.u.u.u.u.",
"u.u.u.u.u.u.u.u.u.u.u.u.u.u.u.u.u.u.u.K N 4.0.2.&.Q @.+.G w C u.u.u.u.u.u.u.u.u.",
"u.u.u.u.u.u.u.u.u.u.u.u.u.u.u.u.u.u.u.c / ^ t a P I F e * ' 7 u.u.u.u.u.u.u.u.u.",
"u.u.u.u.u.u.u.u.u.u.u.u.u.u.u.u.u.u.9 h | ` z q = ; - f D 6 u.u.u.u.u.u.u.u.u.u.",
"u.u.u.u.u.u.u.u.u.u.u.u.u.u.u.u.u.# x E ~ % g J p i u y : u.u.u.u.u.u.u.u.u.u.u.",
"u.u.u.u.u.u.u.u.u.u.u.u.u.u.u.+ 0 ) Y 8 $ & u.u.u.u.u.u.u.u.u.u.u.u.u.u.u.u.u.u.",
"u.u.u.u.u.u.u.u.u.u.u.u.u.u.O j  .V u.u.u.u.u.u.u.u.u.u.u.u.u.u.u.u.u.u.u.u.u.u.",
"u.u.u.u.u.u.u.u.u.u.u.u.o > ( T 4 u.u.u.u.u.u.u.u.u.u.u.u.u.u.u.u.u.u.u.u.u.u.u.",
"u.u.u.u.u.u.u.u.u.u.u.  d _ L ! u.u.u.u.u.u.u.u.u.u.u.u.u.u.u.u.u.u.u.u.u.u.u.u.",
"u.u.u.u.u.u.u.u.u.u.. l R } X u.u.u.u.u.u.u.u.u.u.u.u.u.u.u.u.u.u.u.u.u.u.u.u.u.",
"u.u.u.u.u.u.u.u.u., ..o.3 @ u.u.u.u.u.u.u.u.u.u.u.u.u.u.u.u.u.u.u.u.u.u.u.u.u.u.",
"u.u.u.u.u.u.u.u.u.2 M < u.u.u.u.u.u.u.u.u.u.u.u.u.u.u.u.u.u.u.u.u.u.u.u.u.u.u.u.",
"u.u.u.u.u.u.u.u.u.u.u.u.u.u.u.u.u.u.u.u.u.u.u.u.u.u.u.u.u.u.u.u.u.u.u.u.u.u.u.u.",
"u.u.u.u.u.u.u.u.u.u.u.u.u.u.u.u.u.u.u.u.u.u.u.u.u.u.u.u.u.u.u.u.u.u.u.u.u.u.u.u.",
"u.u.u.u.u.u.u.u.u.u.u.u.u.u.u.u.u.u.u.u.u.u.u.u.u.u.u.u.u.u.u.u.u.u.u.u.u.u.u.u.",
"u.u.u.u.u.u.u.u.u.u.u.u.u.u.u.u.u.u.u.u.u.u.u.u.u.u.u.u.u.u.u.u.u.u.u.u.u.u.u.u.",
"u.u.u.u.u.u.u.u.u.u.u.u.u.u.u.u.u.u.u.u.u.u.u.u.u.u.u.u.u.u.u.u.u.u.u.u.u.u.u.u.",
"u.u.u.u.u.u.u.u.u.u.u.u.u.u.u.u.u.u.u.u.u.u.u.u.u.u.u.u.u.u.u.u.u.u.u.u.u.u.u.u.",
"u.u.u.u.u.u.u.u.u.u.u.u.u.u.u.u.u.u.u.u.u.u.u.u.u.u.u.u.u.u.u.u.u.u.u.u.u.u.u.u.",
"u.u.u.u.u.u.u.u.u.u.u.u.u.u.u.u.u.u.u.u.u.u.u.u.u.u.u.u.u.u.u.u.u.u.u.u.u.u.u.u.",
"u.u.u.u.u.u.u.u.u.u.u.u.u.u.u.u.u.u.u.u.u.u.u.u.u.u.u.u.u.u.u.u.u.u.u.u.u.u.u.u.",
"u.u.u.u.u.u.u.u.u.u.u.u.u.u.u.u.u.u.u.u.u.u.u.u.u.u.u.u.u.u.u.u.u.u.u.u.u.u.u.u.",
"u.u.u.u.u.u.u.u.u.u.u.u.u.u.u.u.u.u.u.u.u.u.u.u.u.u.u.u.u.u.u.u.u.u.u.u.u.u.u.u.",
"u.u.u.u.u.u.u.u.u.u.u.u.u.u.u.u.u.u.u.u.u.u.u.u.u.u.u.u.u.u.u.u.u.u.u.u.u.u.u.u."
};
