/* XPM */
static char *result[] = {
/* columns rows colors chars-per-pixel */
"50 50 170 2 ",
"   c #000000",
".  c #0C0201",
"X  c #000A01",
"o  c #0F0804",
"O  c #110A05",
"+  c #110000",
"@  c gray11",
"#  c #002702",
"$  c #003204",
"%  c #013C09",
"&  c #023A11",
"*  c #361233",
"=  c gray16",
"-  c gray13",
";  c #343434",
":  c #3D3D3D",
">  c #543C2A",
",  c #4D3726",
"<  c #004502",
"1  c #005C07",
"2  c #034D19",
"3  c #034616",
"4  c #04561D",
"5  c #045B1E",
"6  c #00641D",
"7  c #00661A",
"8  c #055E21",
"9  c #056422",
"0  c #066A26",
"q  c #076F28",
"w  c #007222",
"e  c #007A24",
"r  c #077329",
"t  c #08762B",
"y  c #007A2B",
"u  c #097D2E",
"i  c #644833",
"p  c #6F5F3D",
"a  c #74543D",
"s  c #526A35",
"d  c #617C3F",
"f  c #26414B",
"g  c #4A4A4A",
"h  c #544553",
"j  c #5A5A5A",
"k  c #505050",
"l  c #5F686C",
"z  c #656565",
"x  c #6D6D6D",
"c  c #747374",
"v  c #7B7B7B",
"b  c #865C46",
"n  c #8B654A",
"m  c #8E684C",
"M  c #916A4D",
"N  c #89784C",
"B  c #966E50",
"V  c #9F6E54",
"C  c #9C7353",
"Z  c #907A50",
"A  c #997953",
"S  c #A07356",
"D  c #AC7E5D",
"F  c #B17E5F",
"G  c #00832B",
"H  c #008D2E",
"J  c #09802F",
"K  c #00942D",
"L  c #0A8631",
"P  c #008A31",
"I  c #0B8B34",
"U  c #048330",
"Y  c #1F8F3C",
"T  c #009235",
"R  c #0C9337",
"E  c #009A31",
"W  c #0D9638",
"Q  c #0D9C3A",
"!  c #218B3B",
"~  c #3E8839",
"^  c #00A62C",
"/  c #00A527",
"(  c #00A635",
")  c #00AB37",
"_  c #00A63A",
"`  c #0DA23D",
"'  c #00AA3C",
"]  c #0DA83F",
"[  c #10A53F",
"{  c #4A843B",
"}  c #2C9444",
"|  c #02AC41",
" . c #11AB41",
".. c #10A740",
"X. c #12B244",
"o. c #1AB345",
"O. c #2FA843",
"+. c #528F40",
"@. c #5B9946",
"#. c #75944C",
"$. c #679849",
"%. c #53AD4B",
"&. c #47A947",
"*. c #65AA4F",
"=. c #69AE51",
"-. c #67AC50",
";. c #79AD55",
":. c #5B8962",
">. c #708B73",
",. c #88804E",
"<. c #879353",
"1. c #969559",
"2. c #A9825C",
"3. c #B1825E",
"4. c #89AF5B",
"5. c #97A75D",
"6. c #8DB35D",
"7. c #A0A25F",
"8. c #B58561",
"9. c #BA8664",
"0. c #BA8965",
"q. c #B38E75",
"w. c #B99667",
"e. c #A4AC63",
"r. c #B2AA68",
"t. c #B3B16A",
"y. c #BCB16E",
"u. c #C18E68",
"i. c #C4916A",
"p. c #CA956E",
"a. c #C39C6C",
"s. c #CD9870",
"d. c #C69A7C",
"f. c #D39C73",
"g. c #D99E76",
"h. c #C0AF6F",
"j. c #D9A177",
"k. c #DDA379",
"l. c #C3B471",
"z. c #CCB375",
"x. c #D0B577",
"c. c #D7B479",
"v. c #DCB67C",
"b. c #D6B97A",
"n. c #E2A77B",
"m. c #E6AA7E",
"M. c #E9AC7F",
"N. c #E1B57E",
"B. c #767D80",
"V. c #847E83",
"C. c #828282",
"Z. c #898889",
"A. c #939393",
"S. c #989A9B",
"D. c #BCB9BC",
"F. c #EBAE81",
"G. c #EFB283",
"H. c #E7BA82",
"J. c #F3B485",
"K. c #FBB689",
"L. c #FCBA8A",
"P. c #F6B888",
"I. c #FFBF90",
"U. c #FFC18F",
"Y. c #FFC291",
"T. c #CBCBCB",
"R. c #C0C0C0",
"E. c gray84",
"W. c white",
"Q. c None",
/* pixels */
"Q.Q.Q.Q.Q.Q.Q.Q.Q.Q.Q.Q.Q.Q.Q.Q.Q.Q.Q.                            A.Q.Q.Q.Q.Q.Q.Q.Q.Q.Q.Q.Q.Q.Q.Q.Q.",
"Q.Q.Q.Q.Q.Q.Q.Q.Q.Q.Q.Q.Q.Q.Q.Q.Q.Q.Q.            .             X A.Q.Q.Q.Q.Q.Q.Q.Q.Q.Q.Q.Q.Q.Q.Q.Q.",
"Q.Q.Q.Q.Q.Q.Q.Q.Q.Q.Q.Q.Q.- ; ; ; * ! ..( h.K.K.r.( [ [ [ [ [ [ ..Y * @ Z.Q.Q.Q.Q.Q.Q.Q.Q.Q.Q.Q.Q.Q.",
"Q.Q.Q.Q.Q.Q.Q.Q.Q.Q.Q.Q.Q.          I  .( l.L.L.t._ ............ .I     Z.Q.Q.Q.Q.Q.Q.Q.Q.Q.Q.Q.Q.Q.",
"Q.Q.Q.Q.Q.Q.Q.Q.Q.Q.Q.Q.B.          P X.( z.L.I.t.^ _ _ _ ) '  . .R     Z.Q.Q.Q.Q.Q.Q.Q.Q.Q.Q.Q.Q.Q.",
"Q.Q.Q.Q.Q.Q.Q.Q.Q.Q.g f k.J.G.G.G.P.B # X ~ %.O.y.P.J.G.J.J.l.( ..[ ` ` } h g Q.Q.Q.Q.Q.Q.Q.Q.Q.Q.Q.",
"Q.Q.Q.Q.Q.Q.Q.Q.Q.x     k.L.K.P.L.U.C     U | ( t.L.K.K.L.L.z.( ........R     Q.Q.Q.Q.Q.Q.Q.Q.Q.Q.Q.",
"Q.Q.Q.Q.Q.Q.Q.Q.Q.c     F.L.L.K.P.L.M     G o.) y.I.L.L.L.L.x._ X. .....R     Q.Q.Q.Q.Q.Q.Q.Q.Q.Q.Q.",
"Q.Q.Q.Q.z z z z x =     @.=.&.v.K.L.F.m.J.A $ $ { =.*.*.*.*.+.# & q  .....Q ` } Q.Q.Q.Q.Q.Q.Q.Q.Q.Q.",
"Q.Q.Q.:                 T | ( b.K.P.L.L.L.D     y | ' ' | | P     8  ..... ...Q     Q.Q.Q.Q.Q.Q.Q.Q.",
"Q.Q.Q.                  W  .) H.L.L.K.L.U.C     y o.X. . .o.P     1 o. . ... .Q     Q.Q.Q.Q.Q.Q.Q.Q.",
"Q.Q.Q.Q.Q.Q.k           3 4 % $.;.*.c.L.L.F.n.F.2.< 2 2 4 < Z F.m.i.< 2 q  ...[ W Q } Q.Q.Q.Q.Q.Q.Q.",
"Q.Q.Q.Q.Q.Q.j                 T | ( z.L.L.K.L.L.8.          S U.L.f.    4  ....... .`     : Q.Q.Q.Q.",
"Q.Q.Q.Q.Q.Q.=             o   W  .) b.U.L.I.L.I.9.  X       S L.L.f.    4 X. . .....Q     g Q.Q.Q.Q.",
"Q.Q.Q.Q.Q.Q.Q.Q.Q.Q.Q.Q.x     2 5 4 p n b <.4.6.d     9 W T 7.L.L.f.    4  .........`     g Q.Q.Q.Q.",
"Q.Q.Q.Q.Q.Q.Q.Q.Q.Q.Q.Q.C.                G ' ' y     r X.' e.L.L.f.    4 X... .....Q     g Q.Q.Q.Q.",
"Q.Q.Q.Q.Q.Q.Q.Q.Q.Q.Q.W.v       . O       G o.X.u   . w ( ^ 5.L.L.f.    4 X.....X. ._       Q.Q.Q.Q.",
"Q.Q.Q.Q.Q.Q.Q.Q.Q.S.S.S.d.f.j.a     2.j.f.Z 7 9 3     Z b.x.N.L.L.f.    4  .[ ` 5 7 Q.Q.Q.Q.Q.Q.Q.Q.",
"Q.Q.Q.Q.Q.Q.g           k.L.Y.m     f.L.U.D       X   D L.L.L.L.L.f.    4 X. .Q     Q.Q.Q.Q.Q.Q.Q.Q.",
"Q.Q.Q.Q.Q.Q.j   O       k.L.U.n     s.L.U.S       O   D U.P.P.P.L.f.    4 X.X.E     : Q.Q.Q.Q.Q.Q.Q.",
"Q.Q.Q.Q.Q.Q.j     9.p.i.G.P.L.n     s.L.L.k.i.s.M     D L.P.P.L.L.f.    & r 7 :.Q.Q.Q.Q.Q.Q.Q.Q.Q.Q.",
"Q.Q.Q.Q.Q.Q.j     F.L.L.P.K.U.n     s.L.P.L.L.U.9.    3.U.P.P.K.L.f.          c Q.Q.Q.Q.Q.Q.Q.Q.Q.Q.",
"Q.Q.Q.Q.Q.Q.;     M.U.L.L.L.Y.b     p.L.L.P.L.U.8.    D U.P.K.L.I.g.          z Q.Q.Q.Q.Q.Q.Q.Q.Q.Q.",
"Q.Q.Q.Q.Q.Q.Q.Q.Q.q.3.3.r.t.t.w.0.8.m.L.P.P.P.L.8.    3.L.L.v.r.t.1.    z T.R.T.Q.Q.Q.Q.Q.Q.Q.Q.Q.Q.",
"Q.Q.Q.Q.Q.Q.Q.Q.Q.z     T _ / b.L.L.L.L.L.K.P.U.8.    D L.L.z./ _ K .   Z.Q.Q.Q.Q.Q.Q.Q.Q.Q.Q.Q.Q.Q.",
"Q.Q.Q.Q.Q.Q.Q.Q.Q.j     E X.( v.I.K.L.L.K.L.L.Y.9.    D Y.L.x._  .R     Z.Q.Q.Q.Q.Q.Q.Q.Q.Q.Q.Q.Q.Q.",
"Q.Q.Q.Q.Q.Q.Q.Q.Q.Q.Q.D.:.e e e.l.y.y.y.y.y.y.l.,.    N l.l.5.e J 0     Z.Q.Q.Q.Q.Q.Q.Q.Q.Q.Q.Q.Q.Q.",
"Q.Q.Q.Q.Q.Q.Q.Q.Q.Q.Q.Q.C.  + H _ ( ( ( ( ( ( ( e . . w ) ( G +     X   C.Q.Q.Q.Q.Q.Q.Q.Q.Q.Q.Q.Q.Q.",
"Q.Q.Q.Q.Q.Q.Q.Q.Q.Q.Q.Q.C.    R  . . . . . . .X.u     r X. .I       X   Z.Q.Q.Q.Q.Q.Q.Q.Q.Q.Q.Q.Q.Q.",
"Q.Q.Q.Q.Q.Q.Q.Q.Q.Q.Q.Q.v     r I L L I L L I I 9     8 I I u 0 q 8     C.Q.Q.Q.Q.Q.Q.Q.Q.Q.Q.Q.Q.Q.",
"Q.Q.Q.Q.Q.Q.Q.Q.Q.Q.Q.Q.C.  X                     X X       0 X.X.R     Z.Q.Q.Q.Q.Q.Q.Q.Q.Q.Q.Q.Q.Q.",
"Q.Q.Q.Q.Q.Q.Q.Q.Q.Q.Q.Q.Q.  X           .               .   0  . .I     Z.Q.Q.Q.Q.Q.Q.Q.Q.Q.Q.Q.Q.Q.",
"Q.Q.Q.Q.Q.Q.Q.Q.Q.Q.Q.Q.Q.    4 9 0 &     a C M B M C a     0 X...W 8 1 >.Q.E.Q.Q.Q.Q.Q.Q.Q.Q.Q.Q.Q.",
"Q.Q.Q.Q.Q.Q.Q.Q.Q.Q.Q.Q.Q.    W X.X.0     p.U.U.U.U.Y.p.    0  ... .X.X.K     j Q.Q.Q.Q.Q.Q.Q.Q.Q.Q.",
"Q.Q.Q.Q.Q.Q.Q.Q.Q.Q.Q.Q.Q.    T ' | 0     i.L.P.P.L.L.u.    0  .........W     c Q.Q.Q.Q.Q.Q.Q.Q.Q.Q.",
"Q.Q.Q.Q.Q.Q.Q.Q.Q.Q.Q.Q.Q.    #.4.6.s     i.L.L.P.P.L.u.    0 X....... .W     c Q.Q.Q.Q.Q.Q.Q.Q.Q.Q.",
"Q.Q.Q.Q.Q.Q.Q.Q.Q.Q.Q.Q.Q.    n.L.Y.S     i.L.P.P.P.L.i.    0  . ..... .Q     c Q.Q.Q.Q.Q.Q.Q.Q.Q.Q.",
"Q.Q.Q.Q.Q.Q.Q.Q.Q.Q.Q.Q.Q.    g.L.U.C     p.L.L.L.L.L.u.    0 X... .....W     Q.Q.Q.Q.Q.Q.Q.Q.Q.Q.Q.",
"Q.Q.Q.Q.Q.Q.Q.Q.Q.Q.Q.Q.Q.    a.H.H.m     3.M.n.n.n.M.3.    8 Q Q Q W Q L     Q.Q.Q.Q.Q.Q.Q.Q.Q.Q.Q.",
"Q.Q.Q.Q.Q.Q.Q.Q.Q.Q.Q.Q.C.  + H ) ) 7 . O               O X               X   Q.Q.Q.Q.Q.Q.Q.Q.Q.Q.Q.",
"Q.Q.Q.Q.Q.Q.Q.Q.Q.Q.Q.Q.C.    R ..X.9                                         Q.Q.Q.Q.Q.Q.Q.Q.Q.Q.Q.",
"Q.Q.Q.Q.Q.Q.Q.Q.Q.Q.Q.Q.v     L ` ` 9     , i i i i i i i i i i i >     ; Q.Q.Q.Q.Q.Q.Q.Q.Q.Q.Q.Q.Q.",
"Q.Q.Q.Q.Q.Q.Q.Q.Q.Q.Q.Q.C.  X         X   p.U.L.L.L.L.L.L.U.L.L.U.k.    Q.Q.Q.Q.Q.Q.Q.Q.Q.Q.Q.Q.Q.Q.",
"Q.Q.Q.Q.Q.Q.Q.Q.Q.Q.Q.Q.V.                i.L.L.L.L.P.L.P.L.P.K.L.f.    Q.Q.Q.Q.Q.Q.Q.Q.Q.Q.Q.Q.Q.Q.",
"Q.Q.Q.Q.Q.Q.Q.Q.Q.Q.Q.Q.v                 0.P.G.G.G.G.G.J.G.G.G.J.p.    Q.Q.Q.Q.Q.Q.Q.Q.Q.Q.Q.Q.Q.Q.",
"Q.Q.Q.Q.Q.Q.Q.Q.Q.Q.                    o                           o         Q.Q.Q.Q.Q.Q.Q.Q.Q.Q.Q.",
"Q.Q.Q.Q.Q.Q.Q.Q.Q.Q.                                                          Q.Q.Q.Q.Q.Q.Q.Q.Q.Q.Q.",
"Q.Q.Q.Q.Q.Q.Q.Q.Q.Q.= ; ; ; ; @                             @ ; ; ; ; ; ; ; = Q.Q.Q.Q.Q.Q.Q.Q.Q.Q.Q.",
"Q.Q.Q.Q.Q.Q.Q.Q.Q.Q.Q.Q.Q.Q.Q.A.                            Q.Q.Q.Q.Q.Q.Q.Q.Q.Q.Q.Q.Q.Q.Q.Q.Q.Q.Q.Q.",
"Q.Q.Q.Q.Q.Q.Q.Q.Q.Q.Q.Q.Q.Q.Q.A.                            Q.Q.Q.Q.Q.Q.Q.Q.Q.Q.Q.Q.Q.Q.Q.Q.Q.Q.Q.Q."
};
