/* XPM */
static char *result[] = {
/* columns rows colors chars-per-pixel */
"50 50 178 2 ",
"   c #000000",
".  c #0C0301",
"X  c #000901",
"o  c gray5",
"O  c #130B06",
"+  c #011C05",
"@  c #001100",
"#  c gray9",
"$  c #21160D",
"%  c #002D00",
"&  c #012B0A",
"*  c #002700",
"=  c #003407",
"-  c #003F12",
";  c #3B291C",
":  c #262626",
">  c gray18",
",  c #3F3F3F",
"<  c #373737",
"1  c #480900",
"2  c #522A00",
"3  c #5F390B",
"4  c #693700",
"5  c #422E20",
"6  c #453021",
"7  c #4D3626",
"8  c #004B00",
"9  c #005705",
"0  c #024C16",
"q  c #034616",
"w  c #04541C",
"e  c #035A1E",
"r  c #005316",
"t  c #28401B",
"y  c #006D00",
"u  c #006212",
"i  c #006119",
"p  c #006F1D",
"a  c #055E20",
"s  c #056624",
"d  c #066A25",
"f  c #057328",
"g  c #087329",
"h  c #08782B",
"j  c #007025",
"k  c #38712F",
"l  c #5E422E",
"z  c #614632",
"x  c #6A4D37",
"c  c #724939",
"v  c #6A5438",
"b  c #79583F",
"n  c #73543C",
"m  c #60743C",
"M  c #483B47",
"N  c #454545",
"B  c #4A494A",
"V  c #565656",
"C  c #7B5941",
"Z  c #746740",
"A  c #5C5E60",
"S  c #635962",
"D  c #646464",
"F  c #7E6E65",
"G  c #777777",
"H  c #84562B",
"J  c #8B6549",
"K  c #8F694C",
"L  c #946C4F",
"P  c #986A49",
"I  c #9B7253",
"U  c #997953",
"Y  c #A67A59",
"T  c #00811E",
"R  c #00832B",
"E  c #008C2E",
"W  c #05862A",
"Q  c #098531",
"!  c #0C9136",
"~  c #0D9538",
"^  c #029D3A",
"/  c #0E9D3B",
"(  c #009A30",
")  c #179F3E",
"_  c #00A62D",
"`  c #00A524",
"'  c #00A635",
"]  c #00AA36",
"[  c #00A539",
"{  c #0FA33E",
"}  c #00AA3D",
"|  c #10A73F",
" . c #2F8942",
".. c #00AD41",
"X. c #0FAD43",
"o. c #10A740",
"O. c #10AA41",
"+. c #19A841",
"@. c #14B144",
"#. c #1CB446",
"$. c #1DB549",
"%. c #478351",
"&. c #718246",
"*. c #5FAA4D",
"=. c #4DA948",
"-. c #64AA4E",
";. c #6BA64F",
":. c #6CAB51",
">. c #73AC53",
",. c #7BA453",
"<. c #63B050",
"1. c #72B054",
"2. c #85894F",
"3. c #918553",
"4. c #9E975C",
"5. c #AA895E",
"6. c #B88257",
"7. c #88AA59",
"8. c #93AB5E",
"9. c #92B15E",
"0. c #B48461",
"q. c #B88763",
"w. c #BA8C65",
"e. c #B58B63",
"r. c #BE9268",
"t. c #99AE60",
"y. c #9DB162",
"u. c #A4AE64",
"i. c #AFB369",
"p. c #BAB26D",
"a. c #B3B06A",
"s. c #BBA46A",
"d. c #C18D69",
"f. c #C4916A",
"g. c #C9956D",
"h. c #CF9971",
"j. c #CF9770",
"k. c #D49D74",
"l. c #DB9E77",
"z. c #C2A86E",
"x. c #DFA57A",
"c. c #D8A176",
"v. c #C5B271",
"b. c #CBB375",
"n. c #D6B479",
"m. c #D8B77A",
"M. c #E1A67B",
"N. c #E5AA7D",
"B. c #EAAB7F",
"V. c #888888",
"C. c gray53",
"Z. c gray62",
"A. c #A9A29E",
"S. c #A3A3A3",
"D. c #A3ABA4",
"F. c #AEADAE",
"G. c #B9A9A0",
"H. c gray71",
"J. c #BEBEBE",
"K. c #B2B8B3",
"L. c #EBAE80",
"P. c #E6B680",
"I. c #EDB282",
"U. c #EFBA85",
"Y. c #F3B385",
"T. c #F1BA85",
"R. c #F7B888",
"E. c #FCBA8A",
"W. c #F9B488",
"Q. c #FFC08E",
"!. c #FFC491",
"~. c #C2C1C2",
"^. c #CCC9C9",
"/. c #D2D2D2",
"(. c #E9E9E9",
"). c white",
"_. c #F3F3F3",
"`. c None",
/* pixels */
"`.`.`.`.`.`.`.`.`.`.`.`.`.`.`.`.`.`.`.`.).).).).).).).).).).).).).).).).).`.`.`.`.`.`.`.`.`.`.`.`.`.",
"`.`.`.`.`.`.`.`.`.`.`.`.`.`.`.`.`.`.  : : : : : : : : : : : : : : : : : B `.`.`.`.`.`.`.`.`.`.`.`.`.",
"`.`.`.`.`.`.`.`.`.`.`.`.`.`.`.`.`.`.                                    N `.`.`.`.`.`.`.`.`.`.`.`.`.",
"`.`.`.`.`.`.`.`.`.`.`.`.`.`.`.`.`.`.                                    M ).).`.`.`.`.`.`.`.`.`.`.`.",
"`.`.`.`.`.: # `.`.`.`.> B B B B M  .[ [ 8.W.Y.I.I.Y.Y.;.[ o./ o.{ { { { ) B B B B B   `.`.`.`.`.`.`.",
"`.`.`.`.`.    `.`.`.`.            Q @.[ t.E.R.E.E.E.E.>.} o.o.o.O.O.o.O.{             J.`.`.`.`.`.`.",
"`.`.`.`.`.    `.`.`.`.            E #.} u.E.E.E.E.W.E.-.' [ [ [ [ [ +.o.{             ~.).`.`.`.`.`.",
"`.`.`.`.`.    , D A F I.L.L.B.L.Y.U * & k -.-.*.-.-.=.n.U.U.P.I.I.b.] o.o./ { { / { [ %.S V Z.`.`.`.",
"`.`.`.`.`.          l E.E.E.E.E.Q.Y     s ......} ..[ P.E.E.E.E.E.n.[ | o.o.O.| X.{ X.f     V.`.`.`.",
"`.`.`.`.`.          x E.E.E.E.Y.E.I     r $.o.O.o.o.[ I.E.E.E.E.!.m.' | o.o.o.| { X.@.h     V.`.`.`.",
"`.`.`.`.`.          > 1.>.-.I.E.E.I.N.B.r.= 0 a o.o...;.>.1.&.c c m ..o.o.| o.O.X.| @.h     V.`.`.`.",
"`.`.`.`.`.          q ] } [ P.E.R.R.R.Q.k.    = o.o.o.} } ..d     i @.o.o.O.O.o.o.| O.h     V.`.`.`.",
"`.`.`.`.`.      #   q O.@.} U.E.E.E.Y.E.g.      @.O.@.O.O.$.p     9 #.O.O.X.o.o.o.o.@.h     V.`.`.`.",
"`.`.`.`.`.`.`.`.    + e w r ,.7.>.n.E.E.Y.c.x.k.w w e e e 8 5.M.x.f.8 e i | O.o.o.o.@.h     V.`.`.`.",
"`.`.`.`.`.`.`.`.            ^ } ' v.E.E.E.E.E.Y.            f.E.E.c.    & o.o.o.| | X.h     V.`.`.`.",
"`.`.`.`.`.`.`.`.      o     { @.] n.!.E.E.E.E.Y.            d.Q.E.k.    & o.| X.O.@.$.y     G `.`.`.",
"`.`.`.`.`.`.`.`.`.`.`.      e s i b L K 3.9.9.7.      Q ! W z.E.E.c.    & o.{ O.f a 8 D.`.`.`.`.`.`.",
"`.`.`.`.`.`.`.`.`.`.`.          .       i } } [       / O.] v.E.E.k.    & o.X.@.0     ~.`.`.`.`.`.`.",
"`.`.`.`.`.`.`.`.`.`.`.          O       u #.@.|     . ( ] ` p.E.E.c.    & o.o.O.w     ~.`.`.`.`.`.`.",
"`.`.`.`.`.`.`.`.S.S.A.g.g.k.7     Y h.h.5.u d s       s.b.v.B.E.E.c.    & o.o.@.w     J.`.`.`.`.`.`.",
"`.`.`.`.`.          2 Q.E.Q.z     h.Q.Q.k.            B.E.E.E.R.E.c.    & o.o.O.0     `.`.`.`.`.`.`.",
"`.`.`.`.`.  O       6 E.E.E.z     g.Q.E.g.            N.E.E.Y.E.E.k.    & O.@.$.%     `.`.`.`.`.`.`.",
"`.`.`.`.`.    C g.f.g.E.R.E.z     g.Q.E.B.w.d.q.      N.E.E.E.R.E.c.    + g g y K.^.`.`.`.`.`.`.`.`.",
"`.`.`.`.`.    Y !.E.E.R.E.E.z     g.E.R.E.E.Q.Y.      M.E.Y.E.R.E.k.            (.`.`.`.`.`.`.`.`.`.",
"`.`.`.`.`.    P !.E.Q.E.E.E.7     f.E.R.Y.E.E.I.      N.E.Y.E.E.Q.l.            (.`.`.`.`.`.`.`.`.`.",
"`.`.`.`.`.`.`.G.6.q.w.p.p.p.e.5.5.M.E.R.E.Y.E.L.      N.E.E.m.a.p.4.    > J.H.H._.`.`.`.`.`.`.`.`.`.",
"`.`.`.`.`.`.`.`.    * [ [ ' Q.Q.E.E.E.E.R.E.E.Y.      N.E.E.u._ ] E .   N ).`.`.`.`.`.`.`.`.`.`.`.`.",
"`.`.`.`.`.`.`.`.    @ @.O.} B.Q.E.E.E.E.E.E.E.Y.      I.E.Q.i.[ @.~     N ).`.`.`.`.`.`.`.`.`.`.`.`.",
"`.`.`.`.`.`.`.`.`.F.D.T Q R w.g.f.f.d.g.f.f.f.w.      0.g.g.2.R Q g     N ).`.`.`.`.`.`.`.`.`.`.`.`.",
"`.`.`.`.`.`.`.`.`.`.`.    .                         O         .         N ).`.`.`.`.`.`.`.`.`.`.`.`.",
"`.`.`.`.`.`.`.`.`.`.`.          O                                       N ).`.`.`.`.`.`.`.`.`.`.`.`.",
"`.`.`.`.`.`.`.`.`.`.`.`.Z.S.<     C I I I I I L       a d s d s d e     < /././.`.`.`.`.`.`.`.`.`.`.",
"`.`.`.`.`.`.`.`.`.`.`.`.`.`.D     k.!.Q.E.Q.E.R.      { @.X.@.X.@.~             `.`.`.`.`.`.`.`.`.`.",
"`.`.`.`.`.`.`.`.`.`.`.`.`.`.D     g.E.R.R.E.E.L.      / O.o.| X.O.!             (.`.`.`.`.`.`.`.`.`.",
"`.`.`.`.`.`.`.`.`.`.`.`.`.`.D     g.E.R.R.E.R.I.      / O.o.O.o.O.!     $ J J H ^.`.`.`.`.`.`.`.`.`.",
"`.`.`.`.`.`.`.`.`.`.`.`.`.`.D     g.E.E.E.Y.E.I.      / o.| X.o.O.!     6 Q.Q.!.4     `.`.`.`.`.`.`.",
"`.`.`.`.`.`.`.`.`.`.`.`.`.`.D     g.E.E.E.E.E.I.      / X.| o.O.@.!     5 E.E.E.b     J.`.`.`.`.`.`.",
"`.`.`.`.`.`.`.`.`.`.`.`.`.`.V     0.N.M.x.x.M.c.0 w 0 / o.o./ ~ / Q     5 Y.E.E.b     J.`.`.`.`.`.`.",
"`.`.`.`.`.`.`.`.`.`.`.        . O             X @.@.@.X.o.@.d       X   5 E.Y.Q.b     ~.`.`.`.`.`.`.",
"`.`.`.`.`.`.`.`.`.`.`.                        = | | | | o.@.f           ; E.E.E.b     ~.`.`.`.`.`.`.",
"`.`.`.`.`.`.`.`.`.`.`.3 x v x x x x x x x x x v ^ / / / / { d     ; v x b Y.E.Q.b     J.`.`.`.`.`.`.",
"`.`.`.`.`.`.`.`.    1 !.Q.E.Q.E.E.E.E.Q.Q.E.Q.Y.                  L !.E.E.E.R.E.b     J.`.`.`.`.`.`.",
"`.`.`.`.`.`.`.`.    z E.E.E.E.E.E.E.R.E.E.E.E.I.                  K Q.E.E.E.E.E.C     ~.`.`.`.`.`.`.",
"`.`.`.`.`.`.`.`.    z I.L.I.L.L.I.L.L.I.I.L.L.M.                  J Y.I.L.I.I.Y.n     H.`.`.`.`.`.`.",
"`.`.`.`.`.`.`.`.                                                                    o       `.`.`.`.",
"`.`.`.`.`.`.`.`.                                                                            `.`.`.`.",
"`.`.`.`.`.`.`.`.  M , , , , , , , , , , , , , , , , M , , , , , , N l , , , , , N , , , , : `.`.`.`.",
"`.`.`.`.`.`.`.`.`.`.`.`.`.`.`.`.`.`.`.`.`.`.).).).).).).).).`.`.`.`.`.`.`.`.`.`.`.`.`.`.`.`.`.`.`.`.",
"`.`.`.`.`.`.`.`.`.`.`.`.`.`.`.`.`.`.`.`.`.`.`.`.`.`.`.`.`.`.`.`.`.`.`.`.`.`.`.`.`.`.`.`.`.`.`.`.`.`.",
"`.`.`.`.`.`.`.`.`.`.`.`.`.`.`.`.`.`.`.`.`.`.`.`.`.`.`.`.`.`.`.`.`.`.`.`.`.`.`.`.`.`.`.`.`.`.`.`.`.`."
};
