/* XPM */
static char *result[] = {
/* columns rows colors chars-per-pixel */
"50 50 172 2 ",
"   c #000000",
".  c #0C0201",
"X  c #000B02",
"o  c #110000",
"O  c #120A05",
"+  c #001403",
"@  c #001B03",
"#  c #111111",
"$  c #151C0A",
"%  c #220000",
"&  c #21190E",
"*  c #2E1E14",
"=  c #2D1112",
"-  c #012A0A",
";  c #012504",
":  c #172A0F",
">  c #003404",
",  c #3F2A18",
"<  c #272727",
"1  c #2C2C2C",
"2  c #3E3E3E",
"3  c #442E21",
"4  c #4B3525",
"5  c #533C2A",
"6  c #412D3F",
"7  c #004500",
"8  c #004C00",
"9  c #005A00",
"0  c #014413",
"q  c #094D19",
"w  c #03531B",
"e  c #035A1D",
"r  c #005713",
"t  c DarkGreen",
"y  c #007D00",
"u  c #006214",
"i  c #055F21",
"p  c #285622",
"a  c #056322",
"s  c #076C26",
"d  c #007B25",
"f  c #057328",
"g  c #08762B",
"h  c #027D2B",
"j  c #087A2C",
"k  c #007724",
"l  c #2B6428",
"z  c #5D432F",
"x  c #5E4430",
"c  c #664934",
"v  c #6F503A",
"b  c #79583F",
"n  c #5C7A3D",
"m  c #68623A",
"M  c #575C59",
"N  c #5C5B5C",
"B  c gray34",
"V  c #7C5A41",
"C  c #69615C",
"Z  c #5E7D62",
"A  c #646464",
"S  c gray43",
"D  c #7E7D7E",
"F  c #87592F",
"G  c #805D43",
"H  c #846146",
"J  c #8A6449",
"K  c #916A4D",
"L  c #91674C",
"P  c #8C7D4F",
"I  c #966E50",
"U  c #9A7152",
"Y  c #AC7E5C",
"T  c #B37F5A",
"R  c #09812F",
"E  c #008728",
"W  c #00932E",
"Q  c #00982F",
"!  c #0A8330",
"~  c #0B8933",
"^  c #009733",
"/  c #0D9739",
"(  c #0E9B3B",
")  c #079936",
"_  c #2D813F",
"`  c #20963F",
"'  c #00A52A",
"]  c #00A526",
"[  c #00A736",
"{  c #00AA37",
"}  c #00A63A",
"|  c #0EA33E",
" . c #00AA3D",
".. c #10A63F",
"X. c #4F873D",
"o. c #02AD42",
"O. c #0AAA41",
"+. c #10A740",
"@. c #10AA41",
"#. c #18A841",
"$. c #12B244",
"%. c #1BB446",
"&. c #1DB549",
"*. c #2DA843",
"=. c #32AB45",
"-. c #30A442",
";. c #739D4F",
":. c #57AA4B",
">. c #5BAF4E",
",. c #61AA4D",
"<. c #6CAB51",
"1. c #78AE55",
"2. c #909C58",
"3. c #A28259",
"4. c #AA835C",
"5. c #85AD59",
"6. c #8BAD5B",
"7. c #82A857",
"8. c #8AB25C",
"9. c #B48461",
"0. c #B98563",
"q. c #B58B63",
"w. c #BC8A66",
"e. c #A69E61",
"r. c #B69766",
"t. c #ACAC67",
"y. c #AEAF68",
"u. c #B9AA6B",
"i. c #B4B16B",
"p. c #BCB16E",
"a. c #C18E68",
"s. c #C5916A",
"d. c #CB986F",
"f. c #CA956E",
"g. c #CD9870",
"h. c #D39B72",
"j. c #C0B16F",
"k. c #CEA372",
"l. c #DAA177",
"z. c #DEA379",
"x. c #C2B471",
"c. c #CAB274",
"v. c #D6B579",
"b. c #E1A67A",
"n. c #E5A97D",
"m. c #E8A77E",
"M. c #E2B57E",
"N. c #9F9F9F",
"B. c gray59",
"V. c #A29F9D",
"C. c #ACACAC",
"Z. c #BBAFA9",
"A. c #B5B5B5",
"S. c #ECAF81",
"D. c #EDB583",
"F. c #E6B981",
"G. c #E9B982",
"H. c #F3B485",
"J. c #F5B887",
"K. c #FCB689",
"L. c #F7B888",
"P. c #FCBA8A",
"I. c #FFBF90",
"U. c #FFC18F",
"Y. c #FFC391",
"T. c #BEBFC0",
"R. c gainsboro",
"E. c #D7D7D7",
"W. c #DFE0E1",
"Q. c #ECECEC",
"!. c #FBFBFB",
"~. c None",
/* pixels */
"~.~.~.~.~.~.~.~.~.~.~.~.~.~.~.~..                             ~.~.~.~.~.~.~.~.~.~.~.~.~.~.~.~.~.~.~.",
"~.~.~.~.~.~.~.~.~.~.~.~.~.~.~.D .                             ~.~.~.~.~.~.~.~.~.~.~.~.~.~.~.~.~.~.~.",
"~.~.~.~.~.~.~.~.~.~.~.~.~.~.~.D                               ~.~.~.~.~.~.~.~.~.~.~.~.~.~.~.~.~.~.~.",
"~.~.~.~.~.~.~.~.~.~.~.~.6 p 6 ` +.+.+.+.| | | | -.D.H.K.7.}  ._ 1 B 2 2 2 2 ~.~.~.~.~.~.~.~.~.~.~.~.",
"~.~.~.~.~.~.~.~.~.~.~.~.      / @.+.+.@.+.+.@.O.=.L.K.P.6.{ @.j             ~.~.~.~.~.~.~.~.~.~.~.~.",
"~.~.~.~.~.~.~.~.~.~.~.~.      / @.#.} } } } } { } K.P.P.6. .%.E             ~.~.~.~.~.~.~.~.~.~.~.~.",
"~.~.~.~.~.~.~.~.~.1 M M | ( ( @.+.} i.J.D.D.D.D.D.,.:.:.l - @ 4.K.D.S.S.D.S.C B 1 ~.~.~.~.~.~.~.~.~.",
"~.~.~.~.~.~.~.~.~.    ; +.@.@.@.+.} p.P.L.L.L.P.J.*.o.o.e     9.P.L.L.L.K.K.,     ~.~.~.~.~.~.~.~.~.",
"~.~.~.~.~.~.~.~.~.      @...+.@.@.{ x.I.P.K.P.K.P.=.o.&.8     Y P.L.P.P.P.P.3     ~.~.~.~.~.~.~.~.~.",
"~.~.~.~.~.~.~.~.Z [ ( ( +.+.@.a 0 > X.<.<.<.<.<.<.q 0 > d.D.n.D.P.P.F.:.<.<.:     N ~.S S S A ~.~.~.",
"~.~.~.~.~.~.    e @.@.@.@.@.O.q     h o.o.o.o.o.o.+     z.P.K.L.L.P.M.{ o.o.-   .             S ~.~.",
"~.~.~.~.~.~.    e @.@...$.@.%.7     d &.@.+.@.@.+.      l.L.K.P.P.P.M.{ @.@.-         #       B ~.~.",
"~.~.~.~.~.~.Q / ( ..@...w w 8 d.b.n.3.7 w w w w p z.b.b.H.L.P.c.<.1.;.0 w w +           ~.~.~.~.~.~.",
"~.~.~.    E @.@.......|       b.I.I.9.          = K.L.P.L.L.P.p.[  .)                   ~.~.~.~.~.~.",
"~.~.~.    ! @.@.......|       b.P.P.9.      X   * K.P.P.I.P.I.x.{ @.(                   ~.~.~.~.~.~.",
"~.~.~.    ! @.@...$.....      b.P.P.u.E / j     $ 6.6.8.P J K m e i e       E.R.W.~.~.~.~.~.~.~.~.~.",
"~.~.~.    ~ @.@.@.+.@.|       z.P.P.i.{ @./     @ {  .o.r             X     !.~.~.~.~.~.~.~.~.~.~.~.",
"~.~.~.    y &.@.@.+...|       b.P.P.y.' { W o   @ @.@.&.8       O .         !.~.~.~.~.~.~.~.~.~.~.~.",
"~.~.~.~.~.~.9 a j @.@.|       b.P.P.M.c.v.r.    X s s u q.h.h.U     c h.d.h.V.N.N.N.C.B.~.~.~.~.~.~.",
"~.~.~.~.~.~.    i $.@.|       b.P.L.L.P.P.b.            b.P.Y.w.    V U.P.P.%           C.~.~.~.~.~.",
"~.~.~.~.~.~.    8 &.@.@.      z.P.K.L.L.P.z.            l.L.P.w.    b U.L.L.        .   C.~.~.~.~.~.",
"~.~.~.~.~.~.~.~.~.t f s       b.L.L.L.L.P.l.    & s.s.a.D.K.U.w.    b P.L.L.f.s.f.v     A.~.~.~.~.~.",
"~.~.~.~.~.~.~.~.~.            b.P.L.P.L.P.l.    * L.P.P.L.L.P.w.    V P.L.L.P.U.Y.K     C.~.~.~.~.~.",
"~.~.~.~.~.~.~.~.~.            m.P.P.P.K.P.z.    * H.P.L.L.L.U.9.    v I.P.P.P.P.Y.F     C.~.~.~.~.~.",
"~.~.~.~.~.~.~.~.~.~.~.~.      e.p.y.v.P.L.z.    * L.L.L.L.P.P.z.9.0.r.i.i.i.q.9.T Z.E.A.R.~.~.~.~.~.",
"~.~.~.~.~.~.~.~.~.~.~.~.    . ^ { ' p.P.P.z.    * H.L.K.L.L.L.P.P.I.F.' [ }       R.~.~.~.~.~.~.~.~.",
"~.~.~.~.~.~.~.~.~.~.~.~.      ( @.{ j.P.P.b.    * P.P.K.P.K.P.P.K.P.G.{ @.@.      E.~.~.~.~.~.~.~.~.",
"~.~.~.~.~.~.~.~.~.~.~.~.      g ! d 2.x.c.e.    & j.x.j.x.j.j.j.x.x.t.d ! j C.A.C.Q.~.~.~.~.~.~.~.~.",
"~.~.~.~.~.~.~.~.~.~.~.~.    X     . d { { ^ o   @ [ [ [ [ [ [ [ { { W .     !.~.~.~.~.~.~.~.~.~.~.~.",
"~.~.~.~.~.~.~.~.~.~.~.~.            j $.@./     @ @.@.@.@.@.@.@.@.@./       !.~.~.~.~.~.~.~.~.~.~.~.",
"~.~.~.~.~.~.~.~.~.~.~.~.      a s s j ~ ~ g     + ~ ~ ~ ~ ~ ~ ~ ~ ~ j       !.~.~.~.~.~.~.~.~.~.~.~.",
"~.~.~.~.~.~.~.~.~.~.~.~.      ( $.$.j       X                         X     !.~.~.~.~.~.~.~.~.~.~.~.",
"~.~.~.~.~.~.~.~.~.~.~.~.      / @.@.j                     . X               !.~.~.~.~.~.~.~.~.~.~.~.",
"~.~.~.~.~.~.~.~.~.~.~.~.a e e ( @.@.j     4 K K K K K U 4     0 s i e       ~.~.~.~.~.~.~.~.~.~.~.~.",
"~.~.~.~.~.~.~.~.~.      @.@.$.@...$.j     J Y.U.U.U.P.Y.J     j $.@.(       ~.~.~.~.~.~.~.~.~.~.~.~.",
"~.~.~.~.~.~.~.~.~.    - @.+.@.+.@.@.g     H U.L.L.L.L.U.H     f o.o.^       ~.~.~.~.~.~.~.~.~.~.~.~.",
"~.~.~.~.~.~.~.~.~.    - @.@.+.+.+.@.j     H P.L.L.L.L.U.H     n 8.5.;.      ~.~.~.~.~.~.~.~.~.~.~.~.",
"~.~.~.~.~.~.~.~.~.    - @.+.+.@.@.$.j     H Y.L.L.L.L.U.H     0.Y.P.m.      ~.~.~.~.~.~.~.~.~.~.~.~.",
"~.~.~.~.~.~.~.~.~.    - @.@.@.| @.@.j     H P.L.P.L.P.U.H     9.U.P.n.      ~.~.~.~.~.~.~.~.~.~.~.~.",
"~.~.~.~.~.~.~.~.~.    - / ( ( / ( ( s     V D.n.n.n.n.m.b     3.G.G.k.      ~.~.~.~.~.~.~.~.~.~.~.~.",
"~.~.~.~.~.~.~.~.~.                    X .                 . o k { { ^ .     ~.~.~.~.~.~.~.~.~.~.~.~.",
"~.~.~.~.~.~.~.~.~.                                            g $.@./       ~.~.~.~.~.~.~.~.~.~.~.~.",
"~.~.~.~.~.~.~.~.~.2 N N       5 x z z c z x x x z z x c *     f ..| ~       ~.~.~.~.~.~.~.~.~.~.~.~.",
"~.~.~.~.~.~.~.~.~.~.~.~.      m.U.P.P.P.P.P.P.U.P.P.P.Y.J   X         X     ~.~.~.~.~.~.~.~.~.~.~.~.",
"~.~.~.~.~.~.~.~.~.~.~.~.      b.L.L.L.L.L.H.L.L.L.L.L.P.H                   ~.~.~.~.~.~.~.~.~.~.~.~.",
"~.~.~.~.~.~.~.~.~.~.~.~.      l.H.H.H.H.H.H.H.H.H.H.H.P.G                   ~.~.~.~.~.~.~.~.~.~.~.~.",
"~.~.~.~.~.~.~.~.~.          . X                                                   ~.~.~.~.~.~.~.~.~.",
"~.~.~.~.~.~.~.~.~.                                                                ~.~.~.~.~.~.~.~.~.",
"~.~.~.~.~.~.~.~.~.  < < < < < < < < < < < < < < < < < < < < < < < < < < < < < <   ~.~.~.~.~.~.~.~.~.",
"~.~.~.~.~.~.~.~.~.~.~.~.~.~.~.~.~.~.~.~.~.~.~.~.~.~.~.~.~.~.~.~.~.~.~.~.~.~.~.~.~.~.~.~.~.~.~.~.~.~."
};
