/* XPM */
static char *result[] = {
/* columns rows colors chars-per-pixel */
"50 50 150 2 ",
"   c #000000",
".  c #0A0201",
"X  c #0F0804",
"o  c #0D0D0D",
"O  c #100000",
"+  c #100905",
"@  c #011E03",
"#  c #161616",
"$  c #012A0A",
"%  c #02350F",
"&  c #023A11",
"*  c #252525",
"=  c #3C203A",
"-  c gray19",
";  c #3B3B3B",
":  c #004D03",
">  c #004E0E",
",  c #024515",
"<  c #034B19",
"1  c #034917",
"2  c #04541C",
"3  c #055B1F",
"4  c #00601A",
"5  c #055D20",
"6  c #066624",
"7  c #066A25",
"8  c #007624",
"9  c #007926",
"0  c #077329",
"q  c #08762B",
"w  c #007D2B",
"e  c #097B2C",
"r  c #674B35",
"t  c #6B4D37",
"y  c #72533B",
"u  c #7D593D",
"i  c #4F3F4E",
"p  c #4D4D4D",
"a  c #555555",
"s  c #797F48",
"d  c #556269",
"f  c #676767",
"g  c gray45",
"h  c gray49",
"j  c #805E44",
"k  c #8A6549",
"l  c #936B4E",
"z  c #9B6E4B",
"x  c #83754A",
"c  c #986F51",
"v  c #947C52",
"b  c #A4744E",
"n  c #A37757",
"m  c #AA7B5B",
"M  c #A67A59",
"N  c #00842C",
"B  c #09802F",
"V  c #00882A",
"C  c #00922A",
"Z  c #008430",
"A  c #0A8430",
"S  c #038A32",
"D  c #0B8C34",
"F  c #009031",
"G  c #0C9237",
"H  c #0D9638",
"J  c #0E9D3B",
"K  c #258A3D",
"L  c #00A524",
"P  c #00A736",
"I  c #00AB37",
"U  c #01A73B",
"Y  c #0FA23E",
"T  c #00AA3D",
"R  c #0AA83F",
"E  c #10A63F",
"W  c #47863B",
"Q  c #308B43",
"!  c #02AB41",
"~  c #0EA840",
"^  c #10A740",
"/  c #10AA41",
"(  c #1BAB42",
")  c #12B244",
"_  c #1AB345",
"`  c #24A842",
"'  c #4C9240",
"]  c #618D44",
"[  c #78944D",
"{  c #7C9750",
"}  c #5CAB4C",
"|  c #69AA50",
" . c #78AB54",
".. c #899F56",
"X. c #A6845B",
"o. c #84AF59",
"O. c #B68662",
"+. c #B98764",
"@. c #BC8A65",
"#. c #BA9467",
"$. c #B69365",
"%. c #A4AF65",
"&. c #ABAD66",
"*. c #AEAF68",
"=. c #A1B164",
"-. c #BEB16F",
";. c #B7B36C",
":. c #C58E6A",
">. c #C69066",
",. c #C5916B",
"<. c #CC966E",
"1. c #C69878",
"2. c #C5AB70",
"3. c #DBA175",
"4. c #DFA57A",
"5. c #C5B272",
"6. c #CCB575",
"7. c #D3B377",
"8. c #D7B579",
"9. c #DBB47B",
"0. c #E0A67A",
"q. c #E6AA7D",
"w. c #EBAE7F",
"e. c #E1B57E",
"r. c #838383",
"t. c #8A8A8A",
"y. c gray57",
"u. c #9D9D9D",
"i. c #AD9486",
"p. c #BC9B86",
"a. c #B49D90",
"s. c #9EA2A5",
"d. c #A2A2A2",
"f. c #A8ACAF",
"g. c #EDAE80",
"h. c #EEB784",
"j. c #E7B981",
"k. c #E9BA82",
"l. c #F0B784",
"z. c #F6B887",
"x. c #F7B888",
"c. c #FDBB8B",
"v. c #FFBA90",
"b. c #FFC18F",
"n. c #FFC491",
"m. c gray79",
"M. c #CDD0D1",
"N. c #D8D8D8",
"B. c white",
"V. c None",
/* pixels */
"V.V.V.V.V.V.V.V.V.V.V.V.V.V.V.V.V.V.V.V.V.V.V.V.V.V.V.V.V.V.V.V.V.V.V.V.V.V.V.V.V.V.V.V.V.V.V.V.V.V.",
"V.V.V.V.V.V.V.V.V.V.V.V.V.V.V.V.V.V.V.  ; ; ; ; ; ; ; ; ; ;   V.V.V.V.V.V.V.V.V.V.V.V.V.V.V.V.V.V.V.",
"V.V.V.V.V.V.V.V.V.V.V.V.V.V.V.V.V.V.V.                        V.V.V.V.V.V.V.V.V.V.V.V.V.V.V.V.V.V.V.",
"V.V.V.V.V.V.V.V.V.V.V.V.V.V.V.V.V.V.V.                        V.V.V.V.V.V.V.V.V.V.V.V.V.V.V.V.V.V.V.",
"V.V.V.V.V.V.V.V.V.V.V.V.V.V.V.V.p V.V.w.q.q.q.q.q.q.q.q.q.q.w.V.V.V.V.V.V.V.V.V.V.V.V.V.V.V.V.V.V.V.",
"V.V.V.V.V.V.V.V.V.V.V.V.V.V.V.V.    u v.x.c.c.c.c.x.c.c.c.c.b.u     V.V.V.V.V.V.V.V.V.V.V.V.V.V.V.V.",
"V.V.V.V.V.V.V.V.V.V.V.V.V.V.V.V.    y v.c.b.c.b.c.b.b.b.c.n.n.y     V.V.V.V.V.V.V.V.V.V.V.V.V.V.V.V.",
"V.V.V.V.V.V.V.V.V.V.V.V.V.V.V.i.3.3.<.s k k k k k k k k k k u <.3.3.V.V.V.V.V.V.V.V.V.V.V.V.V.V.V.V.",
"V.V.V.V.V.V.V.V.V.V.          z n.c.q.                        0.c.n.z           u.V.V.V.V.V.V.V.V.V.",
"V.V.V.V.V.V.V.V.V.s.      X   n n.n.q.                        q.n.n.n   +       s.V.V.V.V.V.V.V.V.V.",
"V.V.V.V.V.V.V.V.f.p.>.<.l     r m m v N Z W :.:.>.,.,.<.W Z N v m X.r     l <.>.p.V.V.V.V.V.V.V.V.V.",
"V.V.V.V.V.V.g     <.n.n.@.  .       : _ ! } v.c.c.c.b.c.} ! _ :       .   @.n.c.<.    g V.V.V.V.V.V.",
"V.V.V.V.V.V.r.    <.b.c.+.          < / ! } c.x.x.x.x.c.} ! / <           O.b.c.<.    r.V.V.V.V.V.V.",
"V.V.V.V.V.V.r.    <.c.c.+.    1 e 0 A / ! } c.x.x.x.x.c.} ! / A 0 e ,     O.b.c.<.    r.V.V.V.V.V.V.",
"V.V.V.V.V.V.r.    <.c.b.+.    7 ) / / / U } c.x.x.x.z.c.} ! ^ / ) ) 7     O.b.c.<.    r.V.V.V.V.V.V.",
"V.V.V.V.V.V.r.    <.c.c.O.    7 ) ^ ^ / U } x.x.x.c.v.c.} ! / / / / 7     O.c.b.<.    r.V.V.V.V.V.V.",
"V.V.V.V.V.V.r.    <.c.c.O.    7 / ^ ^ ~ ! } c.x.x.3.7.8.' S D Y / ) 7     O.c.c.<.    r.V.V.V.V.V.V.",
"V.V.V.V.V.V.r.    <.c.b.O.    7 ) / ^ / ! } c.x.x.P P I @     H / / 7     O.b.c.<.    r.V.V.V.V.V.V.",
"V.V.V.V.V.V.r.    <.c.c.+.    7 / E ^ ^ U } c.x.x.` ^ / %     H / / 0     +.c.c.<.    r.B.V.V.V.V.V.",
"V.V.V.V.V.V.r.    #.k.k.X.    7 ) / E / U } x.x.x.` ~ ~ 3 1 , D J Y 5     X.k.k.#.    r.V.V.V.V.V.V.",
"V.V.V.V.V.V.r.  O V I I 9 .   7 / / / ^ T } c.x.z.` ^ / / / ) <         O 9 I I V O   r.V.V.V.V.V.V.",
"V.V.V.V.V.V.r.    D / ) e     7 / / ~ ^ T } v.x.x.` ^ ~ / / ) 2           e / / D     r.B.V.V.V.V.V.",
"V.V.V.V.V.V.y.i i Q U ^ e     6 / Y Y / ! } z.h.h.` ^ ^ ~ / / 2           q ^ U Q p i y.V.V.V.V.V.V.",
"V.V.V.V.V.V.V.V.V.d.                2 / ^ ! U U T ~ / ^ / / / 2                 d.B.V.V.V.V.V.V.V.V.",
"V.V.V.V.V.V.V.V.V.d.                2 ) ^ ^ ^ / Y / / / E / / 2                 d.V.V.V.V.V.V.V.V.V.",
"V.V.V.V.V.V.V.V.V.d.                2 / / / ^ ^ / ~ Y / / R / 2                 d.V.V.V.V.V.V.V.V.V.",
"V.V.V.V.V.V.t.* = K ~ / e     6 / ^ G   @ , / / ^ / E / ^ / ) 2     D / / e     d.V.V.V.V.V.V.V.V.V.",
"V.V.V.V.V.V.r.    D / / e     7 / / H     & / / / E / Y / / / 2     D / / e     d.V.V.V.V.V.V.V.V.V.",
"V.V.V.V.V.V.r.    D / / e     7 / ~ H     $ ) / / ^ ^ ^ ^ ^ / 2     D / ( 8     s.V.V.V.V.V.V.V.V.V.",
"V.V.V.V.V.V.r.    D / / e     7 ) / ^ J J H & , , ^ / / ^ / / 2     A / I &.g.g.1.d f u.V.V.V.V.V.V.",
"V.V.V.V.V.V.r.    D / / e     7 / ^ ^ / / J       / / ^ ^ / ) 2     D / P ;.c.c.<.    h V.V.V.V.V.V.",
"V.V.V.V.V.V.V.    G ) ) e   . 4 I P P ( / Y       / ) / / ) ) <     D ) T ;.c.c.<.    r.V.V.V.V.V.V.",
"V.V.V.V.V.V.V.    < 5 5 e H S ..e.9.2.P / E D G G 5 3 3 5 5 2 D G H 0 2 : $.c.c.<.    r.V.V.V.V.V.V.",
"V.V.V.V.V.V.V.          e ) ! %.v.c.9.P ^ ^ / / /             H / ) 6     +.c.c.<.    r.V.V.V.V.V.V.",
"V.V.V.V.V.V.V.    o o   e ~ ! %.v.v.j.L P P P P P             C I I 4 .   +.n.n.<.    g B.V.V.V.V.V.",
"V.V.V.V.V.V.V.V.V...    e ^ ! | *.%.*.5.5.5.5.5.5.,.,.>.,.>.:.2.5.6.{ N w [ m b a.M.m.N.V.V.V.V.V.V.",
"V.V.V.V.V.V.V.V.V.V.    e / ( T I P  .c.c.c.c.c.c.c.c.c.c.c.c.c.c.v.=.T _ w     d.V.V.V.V.V.V.V.V.V.",
"V.V.V.V.V.V.V.V.V.V.    e ) / / / ! o.v.c.c.v.c.v.c.c.v.c.c.c.c.v.v.=.I ) e     d.V.V.V.V.V.V.V.V.V.",
"V.V.V.V.V.V.V.V.V.V.    5 A A e e N ] 5.2.-.-.-.-.-.-.-.2.-.-.-.-.5.[ w A 3     d.V.V.V.V.V.V.V.V.V.",
"V.V.V.V.V.V.V.V.V.V.                , I P P P I P P P P P P P P P P 4 .         d.V.V.V.V.V.V.V.V.V.",
"V.V.V.V.V.V.V.V.V.V.  X             > _ / / / / / / / / / / / / ~ ) 0           V.V.V.V.V.V.V.V.V.V.",
"V.V.V.V.V.V.V.V.V.t.    t c l c l l x F D G D D G D D G D D G D D G 3           V.V.V.V.V.V.V.V.V.V.",
"V.V.V.V.V.V.V.      o   @.n.b.c.c.b.q.                                          V.V.V.V.V.V.V.V.V.V.",
"V.V.V.V.V.V.V.          +.b.c.c.c.c.4.                                  .       V.V.V.V.V.V.V.V.V.V.",
"V.V.V.V.V.V.V.g h p     n j.0.0.q.q.<.                                    a V.f V.V.V.V.V.V.V.V.V.V.",
"V.V.V.V.V.V.V.V.V.f.  +               +                                   V.V.V.V.V.V.V.V.V.V.V.V.V.",
"V.V.V.V.V.V.V.V.V.V.                                                      V.V.V.V.V.V.V.V.V.V.V.V.V.",
"V.V.V.V.V.V.V.V.V.V.- p p p p p p p p p p p p p p p p p p p p p p p p p # V.V.V.V.V.V.V.V.V.V.V.V.V.",
"V.V.V.V.V.V.V.V.V.V.V.V.V.V.V.V.V.V.V.V.V.V.V.V.V.V.V.V.V.V.V.V.V.V.V.V.V.V.V.V.V.V.V.V.V.V.V.V.V.V.",
"V.V.V.V.V.V.V.V.V.V.V.V.V.V.V.V.V.V.V.V.V.V.V.V.V.V.V.V.V.V.V.V.V.V.V.V.V.V.V.V.V.V.V.V.V.V.V.V.V.V."
};
