/* XPM */
static char *result[] = {
/* columns rows colors chars-per-pixel */
"50 50 153 2 ",
"   c #000000",
".  c #0B0101",
"X  c #110000",
"o  c #110A05",
"O  c #001704",
"+  c #121212",
"@  c #191919",
"#  c #002B02",
"$  c #012A0A",
"%  c #023E12",
"&  c #37291A",
"*  c #2D2D2D",
"=  c #3A3A3A",
"-  c #373337",
";  c #422E20",
":  c #443021",
">  c #00540C",
",  c #024415",
"<  c #004F14",
"1  c #024F19",
"2  c #005C17",
"3  c #03521B",
"4  c #055B1F",
"5  c #006204",
"6  c #006B1F",
"7  c #055E20",
"8  c #345D3B",
"9  c #066423",
"0  c #046C25",
"q  c #076F28",
"w  c #007123",
"e  c #007B26",
"r  c #077129",
"t  c #08762A",
"y  c #007D29",
"u  c #097E2E",
"i  c #6F4517",
"p  c #6E573A",
"a  c #79583F",
"s  c #3D7747",
"d  c #4D4D4D",
"f  c #4F434D",
"g  c #5D5D5D",
"h  c #7A5840",
"j  c #45664A",
"k  c #727C45",
"l  c #495A61",
"z  c #5B6569",
"x  c #556269",
"c  c #646464",
"v  c gray42",
"b  c gray44",
"n  c gray47",
"m  c #825E44",
"M  c #8A6549",
"N  c #8E684B",
"B  c #936B4E",
"V  c #9E6F48",
"C  c #9D6B40",
"Z  c #817F4B",
"A  c #986950",
"S  c #997653",
"D  c #A26F44",
"F  c #A17656",
"G  c #A77559",
"H  c #A77B5A",
"J  c #AB7C5B",
"K  c #00842D",
"L  c #09802F",
"P  c #008B2D",
"I  c #0B8632",
"U  c #0C8D35",
"Y  c #009032",
"T  c #0C9136",
"R  c #009C31",
"E  c #0D9638",
"W  c #0E9C3B",
"Q  c #00A523",
"!  c #00A62D",
"~  c #00A735",
"^  c #00A936",
"/  c #00A73A",
"(  c #0FA33E",
")  c #00AA3C",
"_  c #08A93F",
"`  c #10A63F",
"'  c #57873F",
"]  c #0DAB41",
"[  c #10A740",
"{  c #10AA41",
"}  c #1BA841",
"|  c #12B144",
" . c #19B244",
".. c #25A842",
"X. c #6B8143",
"o. c #78894A",
"O. c #54A94A",
"+. c #6FAB51",
"@. c #72AF54",
"#. c #829953",
"$. c #B0825F",
"%. c #8FAD5C",
"&. c #BA8A65",
"*. c #AC8A74",
"=. c #99AE60",
"-. c #9DB162",
";. c #A9AF66",
":. c #A4AE64",
">. c #BAAC6C",
",. c #B3AC69",
"<. c #AFB269",
"1. c #BEB16F",
"2. c #B4B06B",
"3. c #C78F64",
"4. c #C48F6A",
"5. c #C5916B",
"6. c #CA936D",
"7. c #C59F6D",
"8. c #C49777",
"9. c #C69B7D",
"0. c #D79E73",
"q. c #D09E79",
"w. c #DAA075",
"e. c #D6AA77",
"r. c #DDA378",
"t. c #DAAB79",
"y. c #C5B272",
"u. c #C8B273",
"i. c #DBB57B",
"p. c #D4B478",
"a. c #E6AA7D",
"s. c #EAAD7F",
"d. c #E3B57F",
"f. c #8E8E8E",
"g. c #838788",
"h. c #8B9295",
"j. c gray57",
"k. c #A9AAAA",
"l. c gray63",
"z. c #B0A6A0",
"x. c #EBAE80",
"c. c #ECB482",
"v. c #EABC83",
"b. c #F2B584",
"n. c #F6B887",
"m. c #FCBA8B",
"M. c #FFBE90",
"N. c #FFC08E",
"B. c #FFC492",
"V. c #C9CACB",
"C. c #E6E6E6",
"Z. c #EAEBEB",
"A. c None",
/* pixels */
"A.A.A.A.A.A.A.A.A.A.A.A.A.A.A.A.A.A.A.A.A.A.A.A.A.A.A.A.A.A.A.A.A.A.A.A.A.A.A.A.A.A.A.A.A.A.A.A.A.A.",
"A.A.A.A.A.A.A.A.A.A.A.A.A.A.A.A.A.A.  = = = = = = = = = =   A.A.A.A.A.A.A.A.A.A.A.A.A.A.A.A.A.A.A.A.",
"A.A.A.A.A.A.A.A.A.A.A.A.A.A.A.A.A.A.                        A.A.A.A.A.A.A.A.A.A.A.A.A.A.A.A.A.A.A.A.",
"A.A.A.A.A.A.A.A.A.A.A.A.A.A.A.A.A.A.                        V.A.A.A.A.A.A.A.A.A.A.A.A.A.A.A.A.A.A.A.",
"A.A.A.A.A.A.A.A.A.A.A.A.A.A.A.c x 8.c.a.a.s.a.a.a.a.a.a.a.s.*.z g k.A.A.A.A.A.A.A.A.A.A.A.A.A.A.A.A.",
"A.A.A.A.A.A.A.A.A.A.A.A.A.A.c     6.m.n.n.m.n.m.m.m.m.m.m.N.J     j.A.A.A.A.A.A.A.A.A.A.A.A.A.A.A.A.",
"A.A.A.A.A.A.A.A.A.A.A.A.A.A.l     6.B.m.m.N.N.N.N.N.N.m.N.B.J     h.A.A.A.A.A.A.A.A.A.A.A.A.A.A.A.A.",
"A.A.A.A.A.A.A.A.A.A.A.A.A.A.q.w.r.$.M M M M M M M M M M M m &.r.8.x.g.f.f.f.f.g.A.A.A.A.A.A.A.A.A.A.",
"A.A.A.A.A.A.A.A.            x.m.B.F                         5.N.m.w.            A.A.A.A.A.A.A.A.A.A.",
"A.A.A.A.A.A.A.A.      .     b.N.B.G   .                 .   5.B.B.r.            Z.A.A.A.A.A.A.A.A.A.",
"A.A.A.A.A.A.A.A.3.6.&.      S H J k K K o.6.4.4.5.5.6.' K K Z J J N     & 5.5.3.z.k.l.A.A.A.A.A.A.A.",
"A.A.A.A.A.    V B.m.c.    .       P | ] -.M.m.m.m.m.m.@.)  .0       o   ; m.m.B.i     A.A.A.A.A.A.A.",
"A.A.A.A.A.    F N.m.x.            I { / =.m.m.m.b.m.m.+.) | q           ; n.m.m.h     A.A.A.A.A.A.A.",
"A.A.A.A.A.    F m.m.x.      q t q E { / =.m.m.b.m.m.m.+.) { U r t 9     ; m.n.N.h     A.A.A.A.A.A.A.",
"A.A.A.A.A.    F N.m.a.      ( | | { { / =.m.b.m.b.m.m.+.) [ { { | E     ; n.n.m.h     A.A.A.A.A.A.A.",
"A.A.A.A.A.    F N.m.s.      W { ( { { / =.m.m.m.b.m.m.+.) { { { { T     ; m.m.N.h     A.A.A.A.A.A.A.",
"A.A.A.A.A.    F m.m.x.      W { { W U P #.i.p.p.m.n.m.+.) [ [ [ { T     : n.n.N.a     A.A.A.A.A.A.A.",
"A.A.A.A.A.    F m.m.x.      ( { | 9   . 2 ) ^ ..m.n.m.+./ [ [ [ { T     ; m.m.m.a     A.A.A.A.A.A.A.",
"A.A.A.A.A.    F N.m.x.      W { { 0     9 ] ] O.m.n.m.+.) { [ [ { T     ; m.m.m.h     A.A.A.A.A.A.A.",
"A.A.A.A.A.    S v.v.e.      T W ( r , , r [ / O.n.n.m.+.) [ [ { { T     & d.d.v.p     A.A.A.A.A.A.A.",
"A.A.A.A.A.  . 6 ^ ~ R .           I | { { { ) O.n.n.m.+.] [ [ [ { T     $ ^ ^ ) < .   A.A.A.A.A.A.A.",
"A.A.A.A.A.    0 | ] W             I { { { { ] O.m.n.m.+.) [ [ [ { T     $ { ` { <     A.A.A.A.A.A.A.",
"A.A.A.A.A.* f s ) ( W             I { { { [ ) O.b.b.n.+.) ] [ W ` U     $ ` ` / j d   A.A.A.A.A.A.A.",
"A.A.A.A.A.A.A.A.                  I | { [ { [ ] / / / ] { { q                   C.A.A.A.A.A.A.A.A.A.",
"A.A.A.A.A.A.A.A.                  I { { ` { { ` [ [ [ [ { | r                   C.A.A.A.A.A.A.A.A.A.",
"A.A.A.A.A.A.A.A.                  I { { { ` { { [ [ [ [ { { r                   C.A.A.A.A.A.A.A.A.A.",
"A.A.A.A.A.A.A.A.    , { ( { %     I { { ` { { ` [ { { 1 O   I [ { U     $ ` ` _ 8 =   A.A.A.A.A.A.A.",
"A.A.A.A.A.A.A.A.    % { { { %     I { { { ` ` ` [ [ { 1     I { { T     $ ` { { 1     A.A.A.A.A.A.A.",
"A.A.A.A.A.A.A.A.    # } { { ,     I | { { [ [ ` { { | %     u { { T     $ { { { 1     A.A.A.A.A.A.A.",
"A.A.A.A.A.g z *.x.a.t./ [ { %     I { { [ { { ` % , % T W W [ { { T     $ { { | 1     A.A.A.A.A.A.A.",
"A.A.A.A.A.    F N.m.v./ { { ,     I { { { { ` `       W { [ { [ { T     $ [ { { 3     A.A.A.A.A.A.A.",
"A.A.A.A.A.    F m.m.v.) { | $     U | { { | { [       W { } ) ~ ^ P X     { { | 3     A.A.A.A.A.A.A.",
"A.A.A.A.A.    F m.m.c.> 7 4 U T E t 3 4 4 4 4 9 E E T ( ` / ;.i.i.>.P T U 4 4 7 $     A.A.A.A.A.A.A.",
"A.A.A.A.A.    F N.m.x.      W { | q           $ { { { ( ` ~ y.m.m.i.^ { `             A.A.A.A.A.A.A.",
"A.A.A.A.A.    C B.N.b.    . R ^ ) 5             ^ ^ ^ ^ ~ Q u.m.m.i.^ ` (     +       A.A.A.A.A.A.A.",
"A.A.A.A.A.A.A.A.D H S K I K >.u.y.7.4.6.5.5.5.5.u.y.y.y.u.u.2.:.<.%.) ` (       A.A.A.A.A.A.A.A.A.A.",
"A.A.A.A.A.A.A.A.    # | ] ) b.m.m.m.m.m.m.m.m.m.m.m.m.m.m.m.;.! / / } ] `       A.A.A.A.A.A.A.A.A.A.",
"A.A.A.A.A.A.A.A.    , | ] ) b.m.m.m.m.m.m.m.m.m.m.m.m.m.m.m.<./ { { | { [       A.A.A.A.A.A.A.A.A.A.",
"A.A.A.A.A.A.A.A.    $ I u y 2.1.1.1.1.1.y.1.1.1.y.>.y.1.y.u.#.e L L L L u       A.A.A.A.A.A.A.A.A.A.",
"A.A.A.A.A.A.A.A.          . R ^ ~ ~ ~ / ~ ~ ^ ^ ~ ~ ~ ~ / / 6 .                 A.A.A.A.A.A.A.A.A.A.",
"A.A.A.A.A.A.A.A.            ` { { { { { { ] { { { { { { {  .w                   A.A.A.A.A.A.A.A.A.A.",
"A.A.A.A.A.A.A.A.            I U U U T U T T U U T U T U T Y k A B B B B B       A.A.A.A.A.A.A.A.A.A.",
"A.A.A.A.A.A.A.A.                                            5.B.N.N.m.N.m.    +       A.A.A.A.A.A.A.",
"A.A.A.A.A.A.A.A.                                            5.m.m.m.m.m.b.            A.A.A.A.A.A.A.",
"A.A.A.A.A.A.A.A.g n b                                       &.s.a.a.a.r.r.      v n c A.A.A.A.A.A.A.",
"A.A.A.A.A.A.A.A.A.A.A.                                    o                     A.A.A.A.A.A.A.A.A.A.",
"A.A.A.A.A.A.A.A.A.A.A.                                                          A.A.A.A.A.A.A.A.A.A.",
"A.A.A.A.A.A.A.A.A.A.A.- d d d d d d d d d d d d d d d d d d d d d d d d d d d @ A.A.A.A.A.A.A.A.A.A.",
"A.A.A.A.A.A.A.A.A.A.A.A.A.A.A.A.A.A.A.A.A.A.A.A.A.A.A.A.A.A.A.A.A.A.A.A.A.A.A.A.A.A.A.A.A.A.A.A.A.A.",
"A.A.A.A.A.A.A.A.A.A.A.A.A.A.A.A.A.A.A.A.A.A.A.A.A.A.A.A.A.A.A.A.A.A.A.A.A.A.A.A.A.A.A.A.A.A.A.A.A.A."
};
