/* XPM */
static char *b7d32d40608e4403d7b5b593b5524993cYksmOBtErWFZL47[] = {
/* columns rows colors chars-per-pixel */
"50 50 106 2 ",
"   c #1E0029",
".  c #1D0037",
"X  c #1D003B",
"o  c #1D0043",
"O  c #1C004A",
"+  c #1C0A4F",
"@  c #1C1651",
"#  c #1C1D53",
"$  c #1C2455",
"%  c #1D2B56",
"&  c #1C2F58",
"*  c #1C355A",
"=  c #1B3F5F",
"-  c #1B405F",
";  c #1B4361",
":  c #134C67",
">  c #194A65",
",  c #1A5067",
"<  c #16556B",
"1  c #1A546A",
"2  c #16596E",
"3  c #1A5C6E",
"4  c #125E72",
"5  c #006276",
"6  c #046B7B",
"7  c #0E6D7B",
"8  c #126575",
"9  c #196574",
"0  c #116877",
"q  c #106979",
"w  c #196F7B",
"e  c #02717F",
"r  c #0C717E",
"t  c #12747F",
"y  c #017682",
"u  c #0A7581",
"i  c #037B85",
"p  c #087883",
"a  c #017F88",
"s  c #187780",
"d  c #177E85",
"f  c #187982",
"g  c #00838B",
"h  c #00898F",
"j  c #168187",
"k  c #178389",
"l  c #15898D",
"z  c #008B91",
"x  c #0F8E91",
"c  c #029295",
"v  c #009699",
"b  c #009C9D",
"n  c #159193",
"m  c #159798",
"M  c #149B9B",
"N  c #009FA0",
"B  c #00A5A3",
"V  c #00ADA9",
"C  c #13A4A2",
"Z  c #13AAA6",
"A  c #01B2AE",
"S  c #10B4AE",
"D  c #00B7B1",
"F  c #00BBB5",
"G  c #0EBCB5",
"H  c #10BBB3",
"J  c #0EC0B7",
"K  c #00C5BC",
"L  c #0DC3BA",
"P  c #0BC8BE",
"I  c #00CCC2",
"U  c #0BCBC1",
"Y  c #0BCCC1",
"T  c #0ACEC3",
"R  c #00D0C5",
"E  c #09D1C5",
"W  c #00D4C9",
"Q  c #00D5C9",
"!  c #00D7CA",
"~  c #07D7CB",
"^  c #08D5C9",
"/  c #06D9CC",
"(  c #00DCCF",
")  c #00DFD2",
"_  c #00E2D3",
"`  c #00E2D4",
"'  c #00E3D4",
"]  c #03E4D5",
"[  c #00E4D6",
"{  c #00E5D6",
"}  c #03E6D7",
"|  c #00E7D8",
" . c #00E8D8",
".. c #00E9D9",
"X. c #01EADA",
"o. c #00EADB",
"O. c #00EBDB",
"+. c #00ECDB",
"@. c #00EEDD",
"#. c #00F0DF",
"$. c #00F2E1",
"%. c #00F3E1",
"&. c #00F3E2",
"*. c #00F4E2",
"=. c #00F4E3",
"-. c #00F7E5",
/* pixels */
"5 e B I @.-.%.+.O.O.O.O.O.O.O.O.| O.O.O.O.O.O.O.O.O.O.O.O.O.O.O...O.O.O.O.O.O.O...O.O.@.%.&.&.&.%.&.",
"e a B I ..%.#...O.O.O.O.O.O.O.O.O.O.O.O.O.O.O.O.O.O.O.O.O.O.O.O.O.O.O.O.O.O.O.O.O.O.O.O.O.O.O.O.O.@.",
"B V A K R ( { +.#.O.O.O.O.O.O.O.O.O.O.O.O.O.O.O.O.O.O.O.O.O.O.O.O.O.O.O.O.O.O.O.@.@.O.] ~ T Y T T T ",
"I I K A B F Q @.&.%.O.O.O.O.O.O.O.O.O.O.O.O.O.O.O.O.O.| O.| O.O.O.O.O.O.O.| O.O.%.-.O.^ S m n m M M ",
"@...R B g b K ..%.#.O.O.O.O.O.O.O.O.O.O.O.O.| O.O.O.O.O.O.O.O.O.O.O.O.O.O.O.O.@.%.%.| L l ; $ > , , ",
"-.%._ F b N F R ) | O.@.O.O.O.O.O.O.O.| O.O.O.O.O.o.O.O.O.O.O.O.O.O.O.O.O.@.@...} ) U C 9 X   o O O ",
"%.@.{ Q K F A V F Q O.%.%.O.O.O.O.O.O.O.O.O.O.O.O.O.O.O.O.O.O.O.O.O.O.O.O.%.-.O.~ H m s , O O + # # ",
"@.....@...R V h v K | %.%.O.O.O.O.O.O.O.O.O.O.O.O.O.O.O.O.O.O.O.O.O.O.O.O.%.-.| G l > & = = = = = = ",
"....@.-.%.) F v b F W ` | O.@.O.O.O...O.O.O.@...O.O.O.O.O.O.O.O.O.O.@.O.O.} ] U C 3 X X $ ; ; - = = ",
"..@.O.%.%.| W K D V A F Q ..%.%.@.O.O.O.O.O...@.O.O.O.O.O.O.O.O.O.O.%.-.O.~ H M s > O O * = ; - = = ",
"O.O...@.O.O...| W A z v F | %.%.@...O.O.O.O.O...O.O.O.| O.O.O.O...@.-.-.] H l 1 = = = * = = = - = ; ",
"O.O.O.O.O.@.%.%.` F v v D Q ` | ..@.O.@...@.@.O.O.O.O.O.O.O.O.O.@.....] U M 1 X o & ; - = = = = = = ",
"O...O.O.O.O.%.%.| W K D V D K Q | %.%.@.#.#.#.#.#.#.#.@.#.#.%.%.%.{ ^ H M f ; o O * - ; ; = = = = = ",
"O.O.O.O.O.O.O.O.....` Q D c v F ` -.-.%.#.#.#.#.#.#.#.%.#.#.%.-.=.) H l 3 ; ; * * = = = = - = = = = ",
"O.O.O.O.O.O.O.O.@.%.%.` F v z A Q | | ` ` ` ` | ` ` ` ` ` ) ` O.{ T M , . o * ; ; = = = = = = = = ; ",
"O.O.O.O.O.O.O.O...%.%...Q F D D K K K K K K K K K K K K K K I I I D l ; X O * ; - = = = = = = = = = ",
"O.O.O.O.O.O...O.@.@.@....._ Q K V b v b b b b b b N b b b N N N N c t > $ % = = = = = = - = = = = = ",
"O...O.O.O.O.O.O.......@.%.=.{ K v 6 6 y a y a y y a a y a y y g g r 4 > * * = = = = = - = = = ; = = ",
"O.O.O.O.O.O.O.O...@...@.%.-...K b 5 5 y y y y y y y y y y e y i y 6 2 > = = = = = - = = = - = = = = ",
"O.O.O.O.O.O.O.O.O.....@.#.#.{ K b y y a a g a a g g a a g g g g g p 8 > * * = = = = = - = = - - ; = ",
"O.O.O.O.O.O.O.O.O.O.O.O.#.#.` K b y y a g g g a g g g g g g g g g p 0 > * * = = = - = - = = = = = = ",
"O.O.O.O.O.O.O.O.O.O...@.#.#.` K B y y a g g g g g g g g g g g z h p 8 > * * = = = = = = = - = - = = ",
"O.O.O.O.O.O.@...O.O.O.@.#.#.{ K b a y g g g g g g g g g g g g h g p 0 > * * = = - = - - = = = = = = ",
"O.O.O...O.O...O.O.O.O...@.%.` K b y y a g g g g g g g g g g g g h i 9 ; * = = = = = = = = - - = = = ",
"O.O.O.O.O.O.O.O...@...@.@.%.` K N i e g g g g g g g g g i g g g g i 8 > * * = = ; = = = = = = = = ; ",
"O.O...O.O.O.O.O.@...@...%.@.{ K b i e g g g g g g g g g g g g h h p 8 > * * = - = = = = = = = = = = ",
"O.O.O.O.O.O.O.O...@...+.@.#.` K N i y g g g g g a g g g g g g h h p 8 > * * - - = = = = = - = ; = = ",
"O.O.O.O...O.O.O.+...@.+.#.#.` K N y 6 i g g g g g g g g g g g h g p 8 > = * - - = = = ; = = = = = = ",
"O.O.O.O.O.O.O.O.+...@.+.#.#.` K b i y g g g g g g g g g g g g g h p 8 > * * = = = = ; = = = = = = = ",
"O.O.O.O.O.O.O.O.+.....@.#.#.` K b i e g g g g g g g g g g g g h h p 8 > * * = = = = = = ; = = = - = ",
"O.O.O.O.O.O.O.O.+.+.+.+.#.#.` K N y y g g g g g g g g g g g g h h p 8 > * * = = = = = = = = = = = = ",
"O.O.| O.O.O.O.O.+.+.+.+.#.#.` K N g y g g h h g h g h h h g h h h i 8 ; % & = = ; = = = = = = = = ; ",
"O.O.O.O.O.O.O.O.O.O.O.@.#.#.` K b a y g g g h h h g g g z h g z z u 8 > * * = = = = = = = = = ; = = ",
"O.O.O.O.O.O.O.O.O.O.O.O.#.%.` K b 6 6 p i p p i p p i p p p u i i u 8 3 > ; = = = = = = = = = = ; = ",
"O...O.O.O.O.O.O.O.O.O.O.-.-.| L x < : 9 8 8 8 8 8 8 8 8 8 8 8 8 8 0 7 7 q 2 ; * & = = = = = = = = = ",
"O.O.O.O.O.O.O.O.O.O.O.O.&.-.| G k % @ ; > > > > > > > > > > > ; ; < s g i q ; % & = = = = = = = = = ",
"O.O.O.O.O...O.O...@.@...O.` E Z w O O % * * * * * * * * * * * % & > 0 a a w 3 > - ; = = = = = = = = ",
"O.O.O.O.O.O.O.O.@.%.%...~ L C k 3 $ @ & * * = * * * * * = * * % * ; < 0 7 7 7 8 1 ; * * = = = = = = ",
"O.O.O.O.O.O.| O.@.%.-.| L n 3 ; ; = * = = = = = ; = = = = = = = = = ; > 2 7 a i q > % & = = = = ; = ",
"O.O.O.O.O.O.O.O...@...T C 3 X o & ; ; ; = = = ; ; ; = = = = = = = = * % > 7 i g r 4 ; = = = = = = = ",
"O.O.O.O.@.@.%.%...~ L C d ; o O * = ; = = = = = = = = = = = = ; = = * & ; 2 q r r q 8 3 > * * * = * ",
"O.O.O.O.....-.-.] L n 9 > ; * * = = = = = = = = = = ; = = = = = = = = = ; ; > 3 w i i q > & $ & * * ",
"O.O.O.O.@.O.@...T M 1 X o * = = = = = = = = = = = = = = = ; = = = = = = = * % ; 0 y g u 2 ; ; ; ; ; ",
"O.O.@.%.@.| / P Z d = X O * ; ; = = ; = = ; = = = = = = = = = = = = = = = * % = 2 7 u 7 q 8 8 8 8 8 ",
"| O.#.-.-.] G n 9 1 = % * = = = = = = = = = = ; = = = = = ; = = = = = = = = = = ; > 4 0 p i a i i i ",
"O.O.O.#...T M , o O = = = = = = ; = = = = = = = ; = = = = = = = = = = = = - = = = & ; 4 p g h h g g ",
"@.O.] ~ P Z d $ . O * ; ; = = = = = = = = = = = = = = = = = = ; = = = = = - = = * % = < 0 p u u u u ",
"#.O.~ H n w 1 = $ & = ; = = = = = = = = ; = = = = = ; = = = = = = = = = = = = = = * = > 1 2 4 3 2 2 ",
"%.O.T M > o @ = = = = = ; = = = = = = = = = ; = = = = ; = = = = - = = = = = = ; = = = = = = = = * = ",
"&.O.T n $   o = ; = = = = = = = = ; = = = = = = = = = = = = = = ; = = = = = = = - = = = * * * * * * "
};
