/* XPM */
static char *f5ad882abbbf4a21b201fadadb82c1c4Wziz1tOOA729Wj2o[] = {
/* columns rows colors chars-per-pixel */
"50 50 102 2 ",
"   c #050000",
".  c #060000",
"X  c #051709",
"o  c #051809",
"O  c #051F17",
"+  c #051F18",
"@  c #040A21",
"#  c #041E2B",
"$  c #041F2B",
"%  c #052B27",
"&  c #052B28",
"*  c #03243C",
"=  c #033043",
"-  c #043F40",
";  c #033F4D",
":  c #03414E",
">  c #03424E",
",  c #034551",
"<  c #03535C",
"1  c #03555E",
"2  c #056A5E",
"3  c #035F65",
"4  c #056B60",
"5  c #046D63",
"6  c #046E67",
"7  c #02656A",
"8  c #02696D",
"9  c #04716A",
"0  c #006376",
"q  c #006A7B",
"w  c #006B7C",
"e  c #027073",
"r  c #01717B",
"t  c #01727A",
"y  c #01767E",
"u  c #027D7E",
"i  c #007380",
"p  c #007582",
"a  c #007684",
"s  c #017981",
"d  c #017A81",
"f  c #007A85",
"g  c #007A87",
"h  c #007E85",
"j  c #007F8A",
"k  c #008289",
"l  c #00838B",
"z  c #00868E",
"x  c #00898F",
"c  c #018D8C",
"v  c #008790",
"b  c #008991",
"n  c #008C91",
"m  c #008D95",
"M  c #019391",
"N  c #009094",
"B  c #009296",
"V  c #009397",
"C  c #039B91",
"Z  c #039C92",
"A  c #039F93",
"S  c #019A96",
"D  c #009799",
"F  c #019E9B",
"G  c #009B9E",
"H  c #009D9D",
"J  c #03A093",
"K  c #03A194",
"L  c #01A39F",
"P  c #00A4A3",
"I  c #01AFA9",
"U  c #02B5AA",
"Y  c #02B6AA",
"T  c #02B6AB",
"R  c #02BCAF",
"E  c #00B7B0",
"W  c #02BEB0",
"Q  c #00BBB4",
"!  c #00BCB5",
"~  c #02C0B1",
"^  c #00C3BB",
"/  c #00C3BC",
"(  c #00C8C0",
")  c #00CCC3",
"_  c #01D2C4",
"`  c #01D3C5",
"'  c #01DBCB",
"]  c #01DBCC",
"[  c #01DFCE",
"{  c #00DFD1",
"}  c #01E0CF",
"|  c #01E1D0",
" . c #00E1D4",
".. c #00E8D8",
"X. c #00ECDB",
"o. c #00EEDE",
"O. c #00EFDF",
"+. c #00F0E0",
"@. c #00F3E3",
"#. c #00F4E3",
"$. c #00F8E6",
"%. c #00FAE8",
/* pixels */
"l l z b f <                                                                             1 h b z k z ",
"l l z v h 7 - o O & & & & & & & & & & & & & & & & & & & & & & & & & & & & & & & & O X - 7 h z z l l ",
"z z j f h c C K C K J J C C K J K C J C C K A A A C K C K C J J Z K Z Z J Z K J C J J C m x j j f f ",
"b v f w l I _ | [ ] ] ' [ ' ' ' ' ' ' [ ' ] ] ] ] ' [ ' [ ' ' ' ' ' [ ] ' ' ' ' [ } | _ E V f a p i ",
"f h h j H ^  .O.+.O.X.O.X.O.X.O.X.X.X.X.X.X.X.X.X.X.X.X.X.X.X.X.O.X.X.X.X.O.X.X.X.O.+.{ ! b t z N N ",
"< 7 c U ^ ( ( ) ) ( / ) / ) / ( ) ( ) ( ( ) ) ( ( ) ( ) ( ( ) ( ) ( ( ( ( ( ( ) ( ) _ ^ S 8 e F ! / ",
"  : C _  .( P N N D D D D D D D D D D D D D D D D D D D D D D D D D D D D D D D D G G c 3 $ 5 Y } O.",
"  X K | O.) N 0 w p p p p f p p p p p s a p p p p a p p p p p a p s p p p p p p f f f q *   5 ~ O.$.",
"  O J [ O.( m w w f f f f f f f f f f f f f f f f f f f f f f f f f f f f f f f f j j t =   5 W X.$.",
"  % C ' X.) D f h l l l l l l l l l l l l l l l l l l l l l l l l l l l l l l l l z v s :   5 W X.+.",
"  & K ' X.( D s f l l l l l l l l l l l l l l l l l l l l l l l l l l l l l l l l z x s :   5 W ..$.",
"  & J ' X.) D p f l l l l l l l l l l l l l l l l l l l l l l l l l l l l l l l l z b s :   5 W ..+.",
"  & K ' X.( D p f l l l l l l l l l l l l l l l l l l l l l l l l l l l l l l l l z z s >   5 Y ..+.",
"  & C ' X.) D p f l l l l l l l l l l l l l l l l l l l l l l l l l l l l l l l l z b s >   5 ~ X.@.",
"  & J ' X.) D p f l l l l l l l l l l l l l l l l l l l l l l l l l l l l l l l l z b s :   5 ~ ..@.",
"  & C [ X.( D p f l l l l l l l l l l l l l l l l l l l l l l l l l l l l l l l l z x s :   5 R ..+.",
"  & C ' X.) D a f l l l l l l l l l l l l l l l l l l l l l l l l l l l l l l l l z b s >   5 ~ ..@.",
"  & A ] X.( D s f l l l l l l l l l l l l l l l l l l l l l l l l l l l l l l l l z x s >   5 T ..@.",
"  & A ] X.( D p f l l l l l l l l l l l l l l l l l l l l l l l l l l l l l l l l z b s >   5 R ..@.",
"  & A ] X.) D p f l l l l l l l l l l l l l l l l l l l l l l l l l l l l l l l l z x s >   5 R ..@.",
"  & A ] X.( D p f l l l l l l l l l l l l l l l l l l l l l l l l l l l l l l l l z x s :   5 R ..@.",
"  & C ] O.( D p f l l l l l l l l l l l l l l l l l l l l l l l l l l l l l l l l z b s :   5 R ..@.",
"  & K [ X.( D p f l l l l l l l l l l l l l l l l l l l l l l l l l l l l l l l l z b s >   5 R ..@.",
"  & C ' X.) D p f l l l l l l l l l l l l l l l l l l l l l l l l l l l l l l l l z x s >   5 R ..@.",
"  & K [ X.( D p f l l l l l l l l l l l l l l l l l l l l l l l l l l l l l l l l z b s ,   5 T ..@.",
"  & C ' X.( D p f l l l l l l l l l l l l l l l l l l l l l l l l l l l l l l l l z x s >   5 R ..@.",
"  & J ' X.( D p f l l l l l l l l l l l l l l l l l l l l l l l l l l l l l l l l z b s >   5 ~ ..@.",
"  & J ' X.) D s f l l l l l l l l l l l l l l l l l l l l l l l l l l l l l l l l z b s >   5 R ..@.",
"  & A ' X.( D a f l l l l l l l l l l l l l l l l l l l l l l l l l l l l l l l l z b s :   5 ~ ..@.",
"  & A ' X.) D a f l l l l l l l l l l l l l l l l l l l l l l l l l l l l l l l l z x s :   5 T ..@.",
"  & C [ X.) D p f l l l l l l l l l l l l l l l l l l l l l l l l l l l l l l l l z b s :   6 W ..@.",
"  & A ] X.( D p f l l l l l l l l l l l l l l l l l l l l l l l l l l l l l l l l z x s :   5 T ..@.",
"  & A ' X.( D p f l l l l l l l l l l l l l l l l l l l l l l l l l l l l l l l l z b s :   5 R ..@.",
"  & A ' X.) D a f l l l l l l l l l l l l l l l l l l l l l l l l l l l l l l l l z x s :   5 R ..@.",
"  & A ' X.( D p f l l l l l l l l l l l l l l l l l l l l l l l l l l l l l l l l z z s :   5 R ..@.",
"  & A ' X.) D p f l l l l l l l l l l l l l l l l l l l l l l l l l l l l l l l l z b s >   5 R ..@.",
"  & A ' X.( D p f l l l l l l l l l l l l l l l l l l l l l l l l l l l l l l l k z b s >   5 R ..+.",
"  & A ' X.) D p f l l l l l l l l l l l l l l l l l l l l l l l l l l l l l l l k z x s :   5 R X.@.",
"  & A ' X.) D p f l l l l l l l l l l l l l l l l l l l l l l l l l l l l l l l z z b s :   5 R ..+.",
"  & A ' X.( D p f l l l l l l l l l l l l l l l l l l l l l l l l l l l l l l l l z b s :   5 R X.$.",
"  & C ' O.) D p f l l l l l l l l l l l l l z l l l l z l l l l l l l l l l l z l z b s :   5 W ..+.",
"  + K [ O.( G f j z z z z z z z z z z z z z z z z z z z z z z z z z z z z z z z z b b h :   5 W X.$.",
"  o J } +._ G f j b x b b v z b b b x b z b b z b b b z b z b x z b z b z b b x b b m h :   2 R O.$.",
"  : S _ { ^ c q w s s s s s s s s s s s s s s s s s s s s s s s s s s s s s s s s f h t , @ 9 U { O.",
"< 8 M U ! S 7 * = : : : : : : : > > > > > > > : : : : : : : : : : : : : : : : > : ; : , , 1 u L ! / ",
"s s b D c 8 #                                                                         @ 1 y z b m N ",
"b v k j t e 6 2 5 5 5 5 5 5 5 5 5 5 5 5 5 5 5 5 5 5 5 5 5 5 5 5 5 5 5 5 5 5 5 5 5 5 2 9 u z x j p i ",
"z l j p k L U ~ ~ R R R R R R R R R R R R R R R R R R R R R R W R R R R R R R R R R ~ U L n j f h f ",
"l l f a N ! | +.X...................X...........X...............X.X.X.X...X.......X.X.{ ! m p h l l ",
"l l f i N / X.%.$.@.@.@.@.@.@.@.@.@.+.$.+.$.$.+.@.+.+.@.$.@.@.+.#.+.+.#.+.+.@.+.@.%.$.X./ N i h l l "
};
